<svg xmlns="http://www.w3.org/2000/svg" xmlns:xlink="http://www.w3.org/1999/xlink" width="1920" zoomAndPan="magnify" viewBox="0 0 1440 809.999993" height="1080" preserveAspectRatio="xMidYMid meet" version="1.0"><defs><clipPath id="d7f603631d"><path d="M 727 528 L 765 528 L 765 792.894531 L 727 792.894531 Z M 727 528 " clip-rule="nonzero"/></clipPath><clipPath id="d5e8db786a"><path d="M 784 528 L 807 528 L 807 792.894531 L 784 792.894531 Z M 784 528 " clip-rule="nonzero"/></clipPath><clipPath id="d96af76dd2"><path d="M 935 528 L 958 528 L 958 792.894531 L 935 792.894531 Z M 935 528 " clip-rule="nonzero"/></clipPath><clipPath id="aae29c2646"><path d="M 879 528 L 901 528 L 901 792.894531 L 879 792.894531 Z M 879 528 " clip-rule="nonzero"/></clipPath><clipPath id="66b58eb736"><path d="M 930 355 L 1199.535156 355 L 1199.535156 385 L 930 385 Z M 930 355 " clip-rule="nonzero"/></clipPath><clipPath id="8b0279e4fe"><path d="M 320.761719 355 L 945 355 L 945 385 L 320.761719 385 Z M 320.761719 355 " clip-rule="nonzero"/></clipPath><clipPath id="0e73a33619"><path d="M 407 402 L 471 402 L 471 792.894531 L 407 792.894531 Z M 407 402 " clip-rule="nonzero"/></clipPath><clipPath id="93f41a0048"><path d="M 515 402 L 589 402 L 589 792.894531 L 515 792.894531 Z M 515 402 " clip-rule="nonzero"/></clipPath><clipPath id="44522463ab"><path d="M 982 402 L 1045 402 L 1045 792.894531 L 982 792.894531 Z M 982 402 " clip-rule="nonzero"/></clipPath><clipPath id="fba818683e"><path d="M 1090 402 L 1164 402 L 1164 792.894531 L 1090 792.894531 Z M 1090 402 " clip-rule="nonzero"/></clipPath><clipPath id="205a02a376"><path d="M 241.035156 53 L 281 53 L 281 64 L 241.035156 64 Z M 241.035156 53 " clip-rule="nonzero"/></clipPath><clipPath id="2f4896e678"><path d="M 241.035156 72 L 281 72 L 281 83 L 241.035156 83 Z M 241.035156 72 " clip-rule="nonzero"/></clipPath><clipPath id="265b09a978"><path d="M 241.035156 105 L 281 105 L 281 115 L 241.035156 115 Z M 241.035156 105 " clip-rule="nonzero"/></clipPath><clipPath id="cdd0b73dad"><path d="M 349 345 L 405 345 L 405 355.230469 L 349 355.230469 Z M 349 345 " clip-rule="nonzero"/></clipPath><clipPath id="2463698144"><path d="M 418 345 L 527.488281 345 L 527.488281 355.230469 L 418 355.230469 Z M 418 345 " clip-rule="nonzero"/></clipPath><clipPath id="70dc2c5144"><path d="M 424 45.351562 L 454 45.351562 L 454 109 L 424 109 Z M 424 45.351562 " clip-rule="nonzero"/></clipPath></defs><path fill="#33459a" d="M 972.820312 493.484375 C 979.855469 478.410156 967.148438 428.195312 971.074219 411.644531 C 984.183594 356.285156 1007.691406 303.476562 1003.871094 244.542969 C 1001.65625 210.449219 980.511719 192.472656 950.929688 189.023438 C 920.929688 185.527344 870.984375 184.699219 843.128906 198.589844 C 792.566406 223.800781 811.246094 285.125 825.941406 326.683594 C 831.625 342.746094 838.167969 359.238281 842.042969 375.84375 C 845.761719 391.761719 850.207031 414.558594 843.914062 430.570312 C 840.917969 438.191406 830.167969 452.460938 824.695312 468.027344 C 824.695312 468.027344 852.515625 478.550781 843.914062 503.46875 C 843.914062 503.46875 964.9375 513.496094 972.820312 493.484375 " fill-opacity="1" fill-rule="nonzero"/><path fill="#3b4ea9" d="M 731.347656 518.9375 L 856.792969 518.9375 C 869.125 518.9375 879.128906 507.546875 879.128906 493.484375 C 879.128906 479.429688 869.125 468.035156 856.792969 468.035156 L 731.347656 468.035156 C 731.347656 468.035156 701.867188 467.351562 703.617188 497.121094 C 703.617188 497.121094 704.769531 518.9375 731.347656 518.9375 " fill-opacity="1" fill-rule="nonzero"/><path fill="#15182b" d="M 745.914062 528.390625 L 954.816406 528.390625 L 954.816406 518.976562 L 745.914062 518.976562 L 745.914062 528.390625 " fill-opacity="1" fill-rule="nonzero"/><path fill="#2e3660" d="M 745.914062 528.390625 L 803.722656 528.390625 L 803.722656 518.976562 L 745.914062 518.976562 L 745.914062 528.390625 " fill-opacity="1" fill-rule="nonzero"/><g clip-path="url(#d7f603631d)"><path fill="#2e3660" d="M 745.914062 528.390625 L 727.4375 792.890625 L 735.394531 792.890625 L 764.566406 528.390625 L 745.914062 528.390625 " fill-opacity="1" fill-rule="nonzero"/></g><g clip-path="url(#d5e8db786a)"><path fill="#2e3660" d="M 784.769531 528.390625 L 798.6875 792.890625 L 806.636719 792.890625 L 803.421875 528.390625 L 784.769531 528.390625 " fill-opacity="1" fill-rule="nonzero"/></g><g clip-path="url(#d96af76dd2)"><path fill="#15182b" d="M 935.605469 528.390625 L 949.527344 792.890625 L 957.476562 792.890625 L 954.261719 528.390625 L 935.605469 528.390625 " fill-opacity="1" fill-rule="nonzero"/></g><g clip-path="url(#aae29c2646)"><path fill="#15182b" d="M 900.996094 528.390625 L 887.078125 792.890625 L 879.128906 792.890625 L 882.339844 528.390625 L 900.996094 528.390625 " fill-opacity="1" fill-rule="nonzero"/></g><path fill="#243880" d="M 977.152344 493.484375 C 977.152344 507.546875 967.148438 518.9375 954.816406 518.9375 L 861.53125 518.9375 C 849.195312 518.9375 839.195312 507.546875 839.195312 493.484375 C 839.195312 479.429688 849.195312 468.035156 861.53125 468.035156 L 954.816406 468.035156 C 967.148438 468.035156 977.152344 479.429688 977.152344 493.484375 " fill-opacity="1" fill-rule="nonzero"/><path fill="#775256" d="M 801.117188 62.886719 C 795.96875 76.113281 796.757812 91.804688 797.707031 105.699219 C 798.542969 117.925781 804.261719 129.554688 807.585938 141.28125 C 812.078125 157.140625 809.273438 173.398438 804.285156 188.878906 C 799.597656 203.429688 790.652344 215.757812 785.003906 229.925781 C 780.46875 241.316406 776.335938 256.816406 783.574219 267.789062 C 791.976562 280.535156 808.015625 285.0625 822.554688 285.199219 C 846.960938 285.433594 870.59375 282.585938 894.828125 280.726562 C 913.320312 279.304688 932.191406 277.667969 948.242188 267.679688 C 963.492188 258.183594 973.472656 242.957031 975.523438 224.882812 C 977.355469 208.726562 965.675781 192.664062 955.382812 181.332031 C 944.988281 169.878906 932.171875 162.414062 920.5625 152.445312 C 909.148438 142.636719 907.632812 131.832031 910.054688 117.519531 C 914.894531 88.9375 918.195312 58.414062 891.039062 39.539062 C 876.953125 29.746094 861.527344 28.335938 844.835938 28.023438 C 832.296875 27.792969 821.273438 36.269531 813.453125 45.222656 C 808.6875 50.675781 803.785156 56.03125 801.117188 62.886719 " fill-opacity="1" fill-rule="nonzero"/><path fill="#ec8675" d="M 910.191406 687.484375 C 911.589844 692.277344 915.378906 706.496094 913.375 712.902344 C 910.929688 720.675781 895.050781 739.777344 895.050781 739.777344 L 887.324219 750.265625 C 887.324219 750.265625 885.242188 761.886719 908.375 750.355469 C 934.761719 737.199219 956.433594 703.183594 956.433594 703.183594 L 928.253906 675.765625 L 910.191406 687.484375 " fill-opacity="1" fill-rule="nonzero"/><path fill="#232831" d="M 931.929688 701.757812 C 930.234375 702.902344 926.636719 704.253906 924.5625 703.304688 C 922.785156 702.496094 919.394531 699.523438 917.675781 700.421875 C 916.207031 701.191406 914.917969 702.21875 913.601562 703.199219 C 914.054688 706.933594 914.132812 710.480469 913.375 712.902344 C 910.929688 720.675781 895.050781 739.777344 895.050781 739.777344 L 885.226562 751.761719 C 885.226562 751.761719 885.167969 761.375 904.84375 754.445312 C 929.234375 745.863281 960.027344 705.132812 960.027344 705.132812 L 941.800781 688.957031 C 939.691406 694.039062 936.46875 698.675781 931.929688 701.757812 " fill-opacity="1" fill-rule="nonzero"/><path fill="#184561" d="M 931.929688 701.757812 C 930.234375 702.902344 926.636719 704.253906 924.5625 703.304688 C 922.785156 702.496094 919.394531 699.523438 917.675781 700.421875 C 916.207031 701.191406 914.917969 702.21875 913.601562 703.199219 C 914.054688 706.933594 914.132812 710.480469 913.375 712.902344 C 910.929688 720.675781 895.050781 739.777344 895.050781 739.777344 L 885.226562 751.761719 C 885.226562 751.761719 885.167969 761.375 904.84375 754.445312 C 929.234375 745.863281 960.027344 705.132812 960.027344 705.132812 L 941.800781 688.957031 C 939.691406 694.039062 936.46875 698.675781 931.929688 701.757812 " fill-opacity="1" fill-rule="nonzero"/><path fill="#fbc8b6" d="M 960.027344 705.132812 C 960.027344 705.132812 929.234375 745.863281 904.84375 754.445312 C 885.167969 761.375 885.226562 751.761719 885.226562 751.761719 C 885.226562 751.761719 884.707031 768.0625 907.128906 758.773438 C 907.128906 758.773438 935.902344 747.507812 963.414062 708.363281 C 963.414062 708.363281 961.984375 706.4375 960.027344 705.132812 " fill-opacity="1" fill-rule="nonzero"/><path fill="#ffffff" d="M 926.554688 717.804688 C 926.910156 717.273438 926.796875 716.546875 926.277344 716.152344 C 918.070312 709.871094 912.277344 713.199219 912.035156 713.347656 C 911.449219 713.699219 911.257812 714.449219 911.609375 715.046875 C 911.957031 715.621094 912.710938 715.808594 913.292969 715.46875 C 913.515625 715.339844 917.992188 712.917969 924.773438 718.113281 C 925.3125 718.519531 926.089844 718.421875 926.503906 717.878906 L 926.554688 717.804688 " fill-opacity="1" fill-rule="nonzero"/><path fill="#ffffff" d="M 921.527344 724.128906 C 921.847656 723.628906 921.773438 722.957031 921.316406 722.550781 C 914.777344 716.683594 909.210938 718.765625 908.980469 718.859375 C 908.347656 719.101562 908.042969 719.8125 908.285156 720.433594 C 908.535156 721.058594 909.234375 721.371094 909.859375 721.132812 C 910.046875 721.066406 914.328125 719.558594 919.695312 724.359375 C 920.195312 724.8125 920.964844 724.773438 921.410156 724.273438 L 921.527344 724.128906 " fill-opacity="1" fill-rule="nonzero"/><path fill="#ffffff" d="M 918.65625 729.839844 C 919.003906 729.320312 918.933594 728.605469 918.445312 728.175781 C 911.617188 722.066406 906.125 723.65625 905.894531 723.730469 C 905.214844 723.933594 904.84375 724.65625 905.042969 725.328125 C 905.257812 725.992188 905.957031 726.378906 906.636719 726.171875 C 906.84375 726.117188 911.078125 725.019531 916.742188 730.085938 C 917.265625 730.5625 918.078125 730.515625 918.539062 729.988281 L 918.65625 729.839844 " fill-opacity="1" fill-rule="nonzero"/><path fill="#ffffff" d="M 914.347656 734.449219 C 914.691406 733.941406 914.609375 733.25 914.140625 732.832031 C 907.339844 726.738281 902.335938 729.578125 902.125 729.699219 C 901.527344 730.046875 901.335938 730.816406 901.6875 731.410156 C 902.035156 731.996094 902.789062 732.191406 903.382812 731.851562 C 903.5625 731.757812 907.128906 729.90625 912.488281 734.691406 C 912.996094 735.148438 913.78125 735.101562 914.242188 734.597656 L 914.347656 734.449219 " fill-opacity="1" fill-rule="nonzero"/><path fill="#ffffff" d="M 909.089844 740.070312 C 909.398438 739.601562 909.328125 738.972656 908.898438 738.585938 C 902.675781 733.011719 898.09375 735.613281 897.898438 735.726562 C 897.363281 736.054688 897.1875 736.75 897.5 737.292969 C 897.832031 737.832031 898.515625 738.007812 899.058594 737.691406 C 899.214844 737.609375 902.484375 735.902344 907.386719 740.285156 C 907.847656 740.703125 908.570312 740.667969 908.980469 740.199219 L 909.089844 740.070312 " fill-opacity="1" fill-rule="nonzero"/><path fill="#ec8675" d="M 684.710938 710.519531 C 683.820312 715.429688 680.882812 729.847656 676.230469 734.699219 C 670.578125 740.5625 647.84375 750.589844 647.84375 750.589844 L 636.253906 756.535156 C 636.253906 756.535156 629.207031 766.011719 655.058594 765.992188 C 684.546875 765.972656 719.105469 745.175781 719.105469 745.175781 L 706.101562 708.082031 L 684.710938 710.519531 " fill-opacity="1" fill-rule="nonzero"/><path fill="#232831" d="M 697.804688 732.980469 C 695.773438 733.253906 691.957031 732.859375 690.523438 731.082031 C 689.292969 729.574219 687.582031 725.398438 685.644531 725.441406 C 683.980469 725.472656 682.375 725.816406 680.757812 726.109375 C 679.5 729.652344 677.988281 732.863281 676.230469 734.699219 C 670.578125 740.5625 647.84375 750.589844 647.84375 750.589844 L 633.707031 756.9375 C 633.707031 756.9375 629.371094 765.519531 650.070312 768.082031 C 675.730469 771.265625 721.457031 748.523438 721.457031 748.523438 L 712.351562 725.917969 C 708.199219 729.53125 703.242188 732.246094 697.804688 732.980469 " fill-opacity="1" fill-rule="nonzero"/><path fill="#184561" d="M 697.804688 732.980469 C 695.773438 733.253906 691.957031 732.859375 690.523438 731.082031 C 689.292969 729.574219 687.582031 725.398438 685.644531 725.441406 C 683.980469 725.472656 682.375 725.816406 680.757812 726.109375 C 679.5 729.652344 677.988281 732.863281 676.230469 734.699219 C 670.578125 740.5625 647.84375 750.589844 647.84375 750.589844 L 633.707031 756.9375 C 633.707031 756.9375 629.371094 765.519531 650.070312 768.082031 C 675.730469 771.265625 721.457031 748.523438 721.457031 748.523438 L 712.351562 725.917969 C 708.199219 729.53125 703.242188 732.246094 697.804688 732.980469 " fill-opacity="1" fill-rule="nonzero"/><path fill="#fbc8b6" d="M 721.457031 748.523438 C 721.457031 748.523438 675.730469 771.265625 650.070312 768.082031 C 629.371094 765.519531 633.707031 756.9375 633.707031 756.9375 C 633.707031 756.9375 625.972656 771.300781 650.1875 772.976562 C 650.1875 772.976562 680.96875 775.707031 723.046875 752.925781 C 723.046875 752.925781 722.621094 750.5625 721.457031 748.523438 " fill-opacity="1" fill-rule="nonzero"/><path fill="#ffffff" d="M 685.84375 744.953125 C 686.398438 744.636719 686.617188 743.933594 686.332031 743.351562 C 681.789062 734.070312 675.117188 734.46875 674.832031 734.492188 C 674.152344 734.550781 673.644531 735.140625 673.695312 735.824219 C 673.75 736.496094 674.339844 737.003906 675.011719 736.957031 C 675.265625 736.941406 680.359375 736.765625 684.109375 744.433594 C 684.410156 745.042969 685.148438 745.296875 685.765625 745 L 685.84375 744.953125 " fill-opacity="1" fill-rule="nonzero"/><path fill="#ffffff" d="M 678.519531 748.375 C 679.035156 748.074219 679.269531 747.4375 679.039062 746.871094 C 675.796875 738.703125 669.890625 738.085938 669.636719 738.066406 C 668.96875 738.003906 668.382812 738.503906 668.316406 739.167969 C 668.257812 739.835938 668.75 740.429688 669.410156 740.492188 C 669.613281 740.515625 674.109375 741.074219 676.773438 747.765625 C 677.027344 748.390625 677.730469 748.699219 678.359375 748.449219 L 678.519531 748.375 " fill-opacity="1" fill-rule="nonzero"/><path fill="#ffffff" d="M 673.40625 752.214844 C 673.949219 751.898438 674.199219 751.222656 673.957031 750.628906 C 670.566406 742.109375 664.949219 741.09375 664.707031 741.050781 C 664.007812 740.933594 663.351562 741.410156 663.230469 742.105469 C 663.125 742.796875 663.582031 743.453125 664.28125 743.574219 C 664.492188 743.617188 668.773438 744.515625 671.582031 751.570312 C 671.839844 752.234375 672.589844 752.554688 673.242188 752.292969 L 673.40625 752.214844 " fill-opacity="1" fill-rule="nonzero"/><path fill="#ffffff" d="M 667.496094 754.414062 C 668.027344 754.117188 668.269531 753.457031 668.03125 752.878906 C 664.65625 744.390625 658.910156 744.703125 658.671875 744.714844 C 657.984375 744.761719 657.464844 745.363281 657.515625 746.054688 C 657.5625 746.734375 658.152344 747.238281 658.835938 747.207031 C 659.039062 747.195312 663.058594 747.132812 665.722656 753.804688 C 665.972656 754.441406 666.695312 754.753906 667.339844 754.5 L 667.496094 754.414062 " fill-opacity="1" fill-rule="nonzero"/><path fill="#ffffff" d="M 660.28125 757.105469 C 660.765625 756.828125 660.984375 756.226562 660.769531 755.6875 C 657.6875 747.929688 652.421875 748.21875 652.203125 748.234375 C 651.578125 748.285156 651.105469 748.832031 651.144531 749.453125 C 651.199219 750.082031 651.738281 750.546875 652.359375 750.503906 C 652.542969 750.503906 656.222656 750.429688 658.660156 756.535156 C 658.886719 757.121094 659.550781 757.40625 660.128906 757.175781 L 660.28125 757.105469 " fill-opacity="1" fill-rule="nonzero"/><path fill="#f79885" d="M 635.207031 361.417969 C 633.074219 367.164062 631.820312 370.292969 631.042969 372.953125 C 626.238281 374.089844 628.085938 365.070312 625.160156 363.101562 C 621.125 360.378906 615.007812 360.074219 610.375 359.003906 C 604.765625 357.703125 594.601562 353.765625 590.613281 349.589844 C 588.738281 347.625 584.484375 340.035156 590.871094 341.414062 C 594.230469 342.140625 610.605469 345.886719 614.34375 346.667969 C 616.929688 347.214844 619.933594 347.742188 622.601562 347.773438 C 625.332031 347.800781 627.921875 348.375 633.238281 347.5 C 633.238281 347.5 639.878906 354.15625 635.207031 361.417969 " fill-opacity="1" fill-rule="nonzero"/><path fill="#281b39" d="M 759.183594 472.945312 C 759.183594 472.945312 762.417969 439.492188 827.777344 456.914062 C 845.996094 475.910156 933.21875 654.472656 939.089844 675.976562 C 943.6875 692.851562 906.484375 700.902344 906.484375 700.902344 C 906.484375 700.902344 765.414062 510.011719 759.183594 472.945312 " fill-opacity="1" fill-rule="nonzero"/><path fill="#281b39" d="M 678 710.144531 C 678 710.144531 693.027344 716.96875 710.46875 715.621094 C 720.578125 714.839844 764.714844 519.699219 762.402344 475.46875 C 722.707031 420.71875 699.078125 444.636719 699.078125 444.636719 C 699.078125 444.636719 675.316406 554.234375 678 710.144531 " fill-opacity="1" fill-rule="nonzero"/><path fill="#775256" d="M 811.136719 54.660156 C 811.136719 54.660156 820.261719 16.515625 872.398438 29.640625 C 872.398438 29.640625 903.183594 36.917969 904.390625 80.15625 C 904.390625 80.15625 902.472656 125.1875 862.09375 134.460938 C 862.09375 134.460938 796.613281 138.636719 811.136719 54.660156 " fill-opacity="1" fill-rule="nonzero"/><path fill="#f8a18f" d="M 840.335938 162.027344 L 878.710938 162.085938 L 878.800781 105.203125 L 840.417969 105.140625 L 840.335938 162.027344 " fill-opacity="1" fill-rule="nonzero"/><path fill="#f57c6e" d="M 868.285156 136.195312 C 873.441406 126.785156 875.007812 116.503906 875.65625 105.199219 L 840.417969 105.140625 L 840.34375 154.589844 C 850.449219 152.757812 863.0625 145.707031 868.285156 136.195312 " fill-opacity="1" fill-rule="nonzero"/><path fill="#f79885" d="M 722.34375 313.160156 C 737.121094 296.417969 740.566406 291.839844 746.5 278.914062 C 759.875 249.8125 773.8125 220.742188 785.980469 191.109375 C 806.417969 157.800781 830.015625 182.5 832.554688 185.492188 C 818.332031 223.042969 801.777344 254.128906 780.621094 297.648438 C 770.871094 317.703125 755.519531 326.949219 733.839844 341.398438 C 733.839844 341.398438 716.378906 327.871094 722.34375 313.160156 " fill-opacity="1" fill-rule="nonzero"/><path fill="#f8a18f" d="M 875.636719 159.597656 L 943.425781 184.539062 L 906.101562 351.613281 L 816.757812 351.613281 L 811.5 174.761719 L 843.910156 159.597656 L 875.636719 159.597656 " fill-opacity="1" fill-rule="nonzero"/><path fill="#281b39" d="M 814.261719 346.671875 C 814.261719 346.671875 860.625 340.636719 921.105469 347.0625 C 944.816406 383.308594 946.429688 411.0625 941.960938 447.921875 C 941.960938 447.921875 945.277344 481.160156 899.226562 483.960938 L 799.789062 490.042969 L 699.765625 455.722656 C 699.765625 455.722656 693.867188 429.398438 736.105469 405.988281 L 794.773438 382.640625 L 814.261719 346.671875 " fill-opacity="1" fill-rule="nonzero"/><path fill="#162643" d="M 923.308594 374.730469 C 845.59375 364.363281 806.285156 374.589844 805.894531 374.703125 L 805.210938 372.164062 C 805.609375 372.058594 845.332031 361.683594 923.65625 372.125 L 923.308594 374.730469 " fill-opacity="1" fill-rule="nonzero"/><path fill="#162643" d="M 810.910156 363.570312 L 810.417969 360.992188 C 850.109375 353.355469 898.042969 357.925781 916.808594 360.25 L 916.488281 362.855469 C 897.839844 360.554688 850.234375 356.003906 810.910156 363.570312 " fill-opacity="1" fill-rule="nonzero"/><path fill="#162643" d="M 940.847656 430.988281 C 916.351562 421.453125 904.441406 401.828125 904.441406 370.988281 L 907.070312 370.988281 C 907.070312 400.617188 918.429688 419.441406 941.800781 428.539062 L 940.847656 430.988281 " fill-opacity="1" fill-rule="nonzero"/><path fill="#41337d" d="M 798.59375 230.492188 L 814.261719 346.671875 C 832.324219 355.851562 842.128906 353.734375 870.046875 353.699219 C 878.980469 353.6875 922.894531 357.042969 921.105469 347.0625 C 919.652344 338.964844 923.6875 324.78125 923.480469 318.738281 C 923.269531 312.679688 924.539062 309.578125 925.035156 303.523438 C 925.519531 297.484375 925.414062 291.480469 928.378906 286.046875 C 933.882812 275.945312 933.804688 260.964844 936.3125 249.605469 C 938.867188 238.082031 940.597656 232.367188 940.597656 220.511719 C 940.605469 214.21875 946.007812 207.167969 947.550781 201.039062 C 949.191406 194.53125 948.273438 186.683594 941.84375 183.742188 C 936.128906 181.128906 929.628906 179.492188 923.703125 177.308594 C 914.082031 173.753906 898.164062 166.714844 888.539062 163.171875 C 854.125 192.777344 832.960938 164.71875 832.960938 164.71875 L 811.089844 174.957031 C 811.089844 174.957031 793.003906 187.824219 798.59375 230.492188 " fill-opacity="1" fill-rule="nonzero"/><path fill="#41337d" d="M 930.414062 297.902344 C 932.128906 311.117188 938.371094 333.839844 941.320312 346.671875 C 944.339844 359.804688 945.21875 363.5625 946.773438 377.359375 C 948.394531 391.792969 951.855469 405.585938 950.964844 420.714844 C 942.300781 425.097656 923.203125 411.078125 915.226562 406.757812 C 903.445312 400.363281 893.195312 393.972656 880.625 389.0625 C 865.171875 383.035156 855.617188 393.121094 839.011719 391.511719 C 829.210938 390.558594 808.675781 388.136719 801.984375 380.519531 C 799.445312 382.398438 797.222656 381.699219 794.773438 382.640625 C 798.59375 366.363281 805.085938 352.664062 804.160156 334.910156 C 803.242188 317.078125 807.386719 296.214844 805.613281 278.417969 C 801.460938 236.636719 850.75 228.796875 883.683594 236.894531 C 897.015625 240.171875 918.210938 241.433594 927.457031 253.394531 C 936.722656 265.382812 928.605469 284.035156 930.414062 297.902344 " fill-opacity="1" fill-rule="nonzero"/><path fill="#1d1e32" d="M 856.371094 190.066406 C 851.207031 190.066406 845.761719 189.683594 841.34375 186.980469 C 836.78125 185.394531 826.078125 178.625 826.078125 172.730469 C 826.078125 172 826.667969 171.414062 827.390625 171.414062 C 828.117188 171.414062 828.707031 172 828.707031 172.730469 C 828.707031 176.714844 837.71875 183.011719 842.324219 184.542969 L 842.601562 184.675781 C 847.273438 187.585938 853.730469 187.5 859.398438 187.40625 C 860.367188 187.390625 861.316406 187.375 862.238281 187.375 C 871.238281 186.734375 883.710938 182.785156 891.070312 175.429688 C 891.578125 174.914062 892.410156 174.914062 892.929688 175.429688 C 893.4375 175.9375 893.4375 176.773438 892.929688 177.28125 C 886.039062 184.175781 874.023438 189.167969 862.328125 190.003906 C 861.332031 190.003906 860.394531 190.019531 859.441406 190.035156 C 858.441406 190.050781 857.40625 190.066406 856.371094 190.066406 " fill-opacity="1" fill-rule="nonzero"/><path fill="#1d1e32" d="M 804.480469 309.929688 L 804.3125 309.921875 C 803.589844 309.832031 803.082031 309.167969 803.175781 308.453125 C 803.800781 303.632812 803.769531 291.019531 803.746094 280.882812 L 803.738281 275.355469 C 803.738281 271.539062 802.277344 263.25 800.867188 255.238281 C 799.660156 248.371094 798.511719 241.878906 798.34375 238.472656 C 798.304688 237.75 798.867188 237.132812 799.59375 237.097656 C 800.367188 237.042969 800.929688 237.617188 800.964844 238.339844 C 801.132812 241.582031 802.261719 247.996094 803.457031 254.785156 C 804.886719 262.90625 806.363281 271.304688 806.363281 275.355469 L 806.375 280.878906 C 806.402344 291.625 806.429688 303.800781 805.78125 308.789062 C 805.695312 309.453125 805.128906 309.929688 804.480469 309.929688 " fill-opacity="1" fill-rule="nonzero"/><path fill="#1d1e32" d="M 908.976562 315.988281 C 908.324219 315.988281 907.753906 315.496094 907.675781 314.835938 C 906.023438 301.238281 905.542969 288.800781 905.117188 277.824219 C 904.921875 272.710938 904.734375 267.875 904.449219 263.625 C 903.574219 250.734375 903.039062 237.230469 902.871094 223.484375 C 902.738281 213.191406 903.625 198.164062 912.742188 186.601562 C 913.195312 186.035156 914.023438 185.9375 914.585938 186.386719 C 915.15625 186.832031 915.253906 187.660156 914.808594 188.226562 C 908.167969 196.648438 905.300781 207.511719 905.5 223.453125 C 905.667969 237.148438 906.199219 250.601562 907.070312 263.449219 C 907.359375 267.734375 907.542969 272.589844 907.742188 277.726562 C 908.164062 288.648438 908.644531 301.035156 910.28125 314.511719 C 910.371094 315.234375 909.855469 315.886719 909.136719 315.976562 L 908.976562 315.988281 " fill-opacity="1" fill-rule="nonzero"/><path fill="#f8a18f" d="M 921.417969 331.851562 C 925.960938 342.402344 939.691406 350.757812 950.078125 350.675781 C 956.746094 350.617188 961.898438 347.664062 966.042969 343.382812 C 966.960938 339.117188 967.371094 334.164062 967.507812 328.230469 C 968.835938 270.320312 955.878906 202.824219 946.058594 188.792969 C 945.195312 185.3125 922.535156 171.355469 914.214844 201.277344 C 914.214844 201.277344 911.867188 251.460938 923.542969 315.1875 C 923.542969 315.1875 927.347656 323.222656 921.417969 331.851562 " fill-opacity="1" fill-rule="nonzero"/><path fill="#f8a18f" d="M 749.199219 347.371094 C 745.984375 344.378906 751.933594 341.609375 751.933594 341.609375 L 782.375 332.042969 L 814.640625 334.382812 C 818.1875 345.46875 812.574219 347.480469 812.574219 347.480469 C 812.574219 347.480469 764.402344 361.570312 749.199219 347.371094 " fill-opacity="1" fill-rule="nonzero"/><path fill="#f8a18f" d="M 895.859375 91.941406 C 895.933594 98.996094 891.96875 106.96875 885.605469 109.859375 C 876.976562 113.792969 873.710938 105.875 873.742188 98.148438 C 873.78125 91.929688 876.570312 81.222656 883.636719 79.050781 C 890.304688 77 895.804688 86.164062 895.859375 91.941406 " fill-opacity="1" fill-rule="nonzero"/><path fill="#f8a18f" d="M 878.109375 111.011719 C 874.011719 121.160156 868.453125 129.464844 858.859375 135.292969 C 849.460938 140.996094 839.78125 143.890625 830.773438 136.386719 C 823.605469 130.417969 818.992188 121.734375 816.421875 112.996094 C 810.5 92.890625 815.226562 65.121094 828.074219 49 C 842.191406 31.296875 869.261719 35.386719 879.636719 55.261719 C 888.085938 71.457031 884.71875 94.652344 878.109375 111.011719 " fill-opacity="1" fill-rule="nonzero"/><path fill="#f57c6e" d="M 885.449219 103.742188 L 885.796875 103.6875 C 886.496094 103.5 886.910156 102.777344 886.71875 102.074219 C 884.96875 95.6875 886.183594 89.332031 889.488281 87.609375 C 890.136719 87.277344 890.386719 86.484375 890.050781 85.835938 C 889.714844 85.1875 888.921875 84.9375 888.273438 85.277344 C 883.761719 87.625 882.039062 94.984375 884.179688 102.777344 C 884.335938 103.355469 884.867188 103.742188 885.449219 103.742188 " fill-opacity="1" fill-rule="nonzero"/><path fill="#f57c6e" d="M 891.933594 93.925781 C 892.441406 93.925781 892.929688 93.632812 893.144531 93.140625 C 893.429688 92.46875 893.128906 91.691406 892.464844 91.402344 C 891.304688 90.902344 887.335938 89.402344 884.582031 91.09375 C 883.964844 91.476562 883.769531 92.289062 884.152344 92.902344 C 884.539062 93.527344 885.351562 93.714844 885.96875 93.335938 C 887.199219 92.574219 889.652344 93.054688 891.40625 93.816406 L 891.933594 93.925781 " fill-opacity="1" fill-rule="nonzero"/><path fill="#775256" d="M 874.238281 93.292969 C 875.660156 94.828125 880.523438 90.84375 881.554688 87.785156 C 881.65625 87.480469 881.554688 87.785156 881.554688 87.785156 C 881.941406 84.183594 884.355469 81.097656 888.636719 80.949219 C 891.695312 80.847656 894.621094 85.488281 895.488281 88.582031 C 895.707031 85.335938 895.640625 80.660156 895.699219 77.195312 C 895.746094 73.90625 895.574219 70.375 895.167969 66.996094 C 894.246094 59.132812 893.632812 54.820312 889.917969 47.4375 C 885.902344 39.488281 879.617188 33.316406 870.699219 31.046875 C 859.914062 28.308594 842.316406 26.050781 833.136719 32.640625 C 828.425781 36.019531 832.332031 36.890625 832.992188 51.695312 C 832.992188 51.695312 875.28125 41.628906 874.238281 93.292969 " fill-opacity="1" fill-rule="nonzero"/><path fill="#1d1e32" d="M 829.726562 86.949219 C 829.589844 89.183594 828.398438 90.925781 827.054688 90.839844 C 825.714844 90.761719 824.742188 88.878906 824.878906 86.652344 C 825.023438 84.417969 826.21875 82.671875 827.566406 82.757812 C 828.902344 82.839844 829.871094 84.714844 829.726562 86.949219 " fill-opacity="1" fill-rule="nonzero"/><path fill="#1d1e32" d="M 858.769531 88.769531 C 858.636719 91.003906 857.4375 92.746094 856.097656 92.660156 C 854.753906 92.578125 853.785156 90.703125 853.925781 88.46875 C 854.0625 86.238281 855.257812 84.492188 856.601562 84.578125 C 857.949219 84.660156 858.917969 86.535156 858.769531 88.769531 " fill-opacity="1" fill-rule="nonzero"/><path fill="#f57c6e" d="M 862.875 98.589844 C 862.78125 100.167969 859.785156 101.28125 856.1875 101.046875 C 852.597656 100.828125 849.765625 99.359375 849.863281 97.769531 C 849.96875 96.175781 852.960938 95.082031 856.550781 95.304688 C 860.140625 95.53125 862.972656 96.996094 862.875 98.589844 " fill-opacity="1" fill-rule="nonzero"/><path fill="#f57c6e" d="M 830.804688 96.574219 C 830.714844 98.160156 827.71875 99.261719 824.125 99.042969 C 820.535156 98.808594 817.703125 97.339844 817.796875 95.753906 C 817.894531 94.164062 820.894531 93.066406 824.488281 93.296875 C 828.078125 93.515625 830.910156 94.988281 830.804688 96.574219 " fill-opacity="1" fill-rule="nonzero"/><path fill="#775256" d="M 862.648438 81.761719 C 862.03125 81.761719 861.417969 81.464844 861.035156 80.917969 C 859.691406 79 854.800781 78.1875 852.183594 79.988281 C 851.285156 80.605469 850.058594 80.375 849.433594 79.484375 C 848.820312 78.585938 849.042969 77.359375 849.941406 76.742188 C 854.199219 73.804688 861.558594 74.792969 864.269531 78.664062 C 864.882812 79.554688 864.675781 80.78125 863.777344 81.40625 C 863.4375 81.648438 863.039062 81.761719 862.648438 81.761719 " fill-opacity="1" fill-rule="nonzero"/><path fill="#775256" d="M 833.308594 81.765625 C 832.691406 81.765625 832.078125 81.46875 831.6875 80.921875 C 830.347656 79.003906 825.453125 78.183594 822.832031 79.984375 C 821.9375 80.609375 820.707031 80.378906 820.09375 79.488281 C 819.46875 78.589844 819.695312 77.363281 820.589844 76.742188 C 824.847656 73.8125 832.210938 74.796875 834.917969 78.660156 C 835.542969 79.554688 835.328125 80.777344 834.4375 81.402344 C 834.097656 81.644531 833.699219 81.765625 833.308594 81.765625 " fill-opacity="1" fill-rule="nonzero"/><path fill="#775256" d="M 814.792969 75.402344 C 809.726562 61.878906 808.738281 39.332031 833.675781 31.632812 C 839.796875 29.742188 854.5625 29.039062 859.1875 34.621094 C 869.425781 46.996094 844.9375 50.574219 838.417969 50.925781 C 828.015625 51.488281 820.84375 53.996094 814.792969 75.402344 " fill-opacity="1" fill-rule="nonzero"/><path fill="#604244" d="M 869.300781 39.582031 C 859.601562 33.625 839.644531 33.289062 832.097656 43.148438 C 832.476562 45.335938 832.828125 48.097656 832.992188 51.691406 C 832.992188 51.691406 870.542969 42.777344 873.988281 85.007812 C 880.105469 69.199219 886.070312 49.886719 869.300781 39.582031 " fill-opacity="1" fill-rule="nonzero"/><path fill="#604244" d="M 829.136719 52.722656 C 831.933594 51.515625 835.003906 51.105469 838.417969 50.917969 C 844.648438 50.582031 867.25 47.296875 860.339844 36.226562 C 846.882812 33.390625 832.105469 36.304688 829.136719 52.722656 " fill-opacity="1" fill-rule="nonzero"/><path fill="#f79885" d="M 733.839844 341.398438 C 667.78125 361.167969 677.394531 354.15625 633.992188 360.148438 L 631.359375 348.160156 C 697.644531 326.195312 726.339844 308.621094 726.339844 308.621094 C 726.339844 308.621094 743.140625 318.074219 733.839844 341.398438 " fill-opacity="1" fill-rule="nonzero"/><path fill="#180f1e" d="M 841.378906 612.113281 C 811.734375 568.765625 774.679688 513.210938 766.527344 494.742188 C 748.988281 455.035156 748.539062 439.707031 779.835938 421.1875 C 794.097656 412.753906 813.90625 405.84375 842.175781 399.453125 L 842.753906 402.015625 C 825.144531 405.996094 799.597656 412.554688 781.175781 423.453125 C 751.144531 441.214844 751.574219 454.378906 768.929688 493.679688 C 777 511.96875 813.964844 567.375 843.550781 610.628906 L 841.378906 612.113281 " fill-opacity="1" fill-rule="nonzero"/><path fill="#180f1e" d="M 889.855469 575.640625 C 889.375 575.640625 888.910156 575.371094 888.675781 574.914062 C 884.050781 565.695312 879.660156 556.273438 875.414062 547.167969 C 870.320312 536.246094 865.0625 524.960938 859.355469 513.941406 C 857.824219 510.96875 856.226562 507.660156 854.558594 504.179688 C 847.15625 488.800781 837.953125 469.65625 824.804688 462.382812 C 824.167969 462.035156 823.941406 461.234375 824.289062 460.601562 C 824.640625 459.964844 825.441406 459.738281 826.074219 460.089844 C 839.957031 467.765625 849.363281 487.324219 856.921875 503.042969 C 858.589844 506.496094 860.167969 509.785156 861.6875 512.738281 C 867.421875 523.804688 872.691406 535.113281 877.796875 546.054688 C 882.035156 555.148438 886.417969 564.554688 891.03125 573.734375 C 891.351562 574.382812 891.089844 575.171875 890.445312 575.5 L 889.855469 575.640625 " fill-opacity="1" fill-rule="nonzero"/><path fill="#180f1e" d="M 857.097656 488.753906 C 854.375 488.753906 851.765625 488.605469 849.4375 488.199219 C 848.726562 488.074219 848.242188 487.394531 848.367188 486.679688 C 848.496094 485.960938 849.191406 485.488281 849.890625 485.609375 C 855.507812 486.589844 863.089844 485.972656 869.78125 485.4375 C 871.972656 485.261719 874.0625 485.09375 875.953125 484.988281 C 882.820312 484.625 898.894531 483.769531 910.078125 481.253906 C 910.777344 481.097656 911.488281 481.539062 911.648438 482.246094 C 911.804688 482.957031 911.355469 483.65625 910.652344 483.816406 C 899.257812 486.378906 883.027344 487.242188 876.09375 487.617188 C 874.222656 487.714844 872.160156 487.878906 869.996094 488.058594 C 865.824219 488.390625 861.320312 488.753906 857.097656 488.753906 " fill-opacity="1" fill-rule="nonzero"/><path fill="#180f1e" d="M 847.726562 488.484375 C 847.09375 488.484375 846.53125 488.027344 846.429688 487.378906 C 845.695312 482.71875 845.402344 464.957031 848.929688 458.242188 C 849.265625 457.59375 850.058594 457.351562 850.703125 457.683594 C 851.347656 458.019531 851.59375 458.816406 851.25 459.457031 C 848.332031 465.027344 848.1875 481.640625 849.027344 486.96875 C 849.136719 487.683594 848.648438 488.359375 847.933594 488.46875 L 847.726562 488.484375 " fill-opacity="1" fill-rule="nonzero"/><path fill="#180f1e" d="M 721.800781 688.695312 C 721.492188 688.695312 721.183594 688.589844 720.9375 688.371094 C 720.390625 687.894531 720.332031 687.0625 720.808594 686.519531 C 721.265625 685.992188 721.527344 685.386719 721.605469 684.675781 L 721.667969 684.402344 C 731.90625 654.105469 738.4375 624.171875 743.476562 598.875 C 745.519531 588.632812 747.167969 578.027344 748.773438 567.773438 C 749.253906 564.664062 749.742188 561.558594 750.234375 558.457031 C 750.867188 554.496094 751.609375 550.40625 752.40625 546.03125 C 754.203125 536.136719 756.242188 524.925781 757.878906 510.363281 C 757.957031 509.640625 758.621094 509.113281 759.328125 509.203125 C 760.046875 509.28125 760.570312 509.929688 760.492188 510.652344 C 758.839844 525.308594 756.792969 536.566406 754.992188 546.496094 C 754.203125 550.859375 753.457031 554.929688 752.832031 558.871094 C 752.335938 561.96875 751.851562 565.074219 751.367188 568.179688 C 749.761719 578.460938 748.109375 589.089844 746.054688 599.394531 C 741.007812 624.730469 734.460938 654.722656 724.199219 685.113281 C 724.039062 686.296875 723.566406 687.34375 722.789062 688.242188 C 722.53125 688.542969 722.164062 688.695312 721.800781 688.695312 " fill-opacity="1" fill-rule="nonzero"/><path fill="#180f1e" d="M 681.941406 586.023438 L 681.9375 586.023438 C 681.210938 586.023438 680.625 585.4375 680.628906 584.707031 C 680.707031 566.84375 683.652344 539.714844 686.015625 517.917969 C 686.707031 511.535156 687.351562 505.605469 687.863281 500.488281 C 690.308594 475.964844 694.800781 455.621094 701.597656 438.300781 C 705.589844 428.128906 710.9375 420.644531 718.429688 414.753906 C 721.4375 412.390625 729.730469 408.492188 737.753906 404.71875 C 741.316406 403.042969 744.796875 401.40625 747.65625 399.980469 C 748.308594 399.65625 749.09375 399.917969 749.417969 400.5625 C 749.746094 401.21875 749.480469 402 748.832031 402.328125 C 745.953125 403.765625 742.453125 405.414062 738.871094 407.097656 C 731.355469 410.632812 722.832031 414.636719 720.054688 416.824219 C 712.945312 422.410156 707.855469 429.539062 704.042969 439.257812 C 697.335938 456.355469 692.898438 476.46875 690.472656 500.75 C 689.964844 505.871094 689.320312 511.808594 688.628906 518.203125 C 686.269531 539.9375 683.335938 566.992188 683.257812 584.71875 C 683.253906 585.445312 682.664062 586.023438 681.941406 586.023438 " fill-opacity="1" fill-rule="nonzero"/><path fill="#f8a18f" d="M 924.476562 315.054688 C 890.429688 332.109375 863.546875 334.613281 813.042969 334.699219 L 810.078125 346.332031 C 861.101562 354.355469 931.730469 356.546875 956.261719 349.328125 C 957.285156 333.757812 955.292969 319.851562 924.476562 315.054688 " fill-opacity="1" fill-rule="nonzero"/><path fill="#f57c6e" d="M 837.457031 104.835938 L 837.15625 104.800781 C 835.507812 104.414062 833.835938 103.132812 832.988281 101.609375 C 832.304688 100.382812 832.171875 99.074219 832.585938 97.820312 C 833.050781 96.429688 834.21875 95.578125 835.257812 94.824219 C 836.070312 94.222656 836.84375 93.65625 837.105469 92.976562 C 837.371094 92.296875 838.128906 91.957031 838.808594 92.214844 C 839.484375 92.472656 839.824219 93.242188 839.566406 93.914062 C 839.027344 95.328125 837.847656 96.183594 836.8125 96.945312 C 836.023438 97.519531 835.289062 98.0625 835.089844 98.65625 C 834.902344 99.207031 834.972656 99.746094 835.292969 100.328125 C 835.847656 101.316406 836.972656 102.046875 837.757812 102.234375 C 838.472656 102.402344 838.90625 103.109375 838.738281 103.820312 C 838.59375 104.421875 838.050781 104.835938 837.457031 104.835938 " fill-opacity="1" fill-rule="nonzero"/><path fill="#ffffff" d="M 831.546875 110.289062 C 829.3125 110.148438 828.289062 110.144531 829.511719 112.273438 C 831.144531 115.105469 834.332031 119.515625 837.886719 118.179688 C 840.421875 117.226562 844.136719 114.671875 845.5625 112.273438 C 846.738281 110.292969 844.488281 110.3125 842.71875 110.289062 C 838.945312 110.234375 835.367188 110.523438 831.546875 110.289062 " fill-opacity="1" fill-rule="nonzero"/><path fill="#f8a18f" d="M 829.738281 47.082031 C 829.738281 47.082031 827.800781 53.933594 824.871094 56.339844 L 829.738281 54.40625 C 829.738281 54.40625 828.175781 56.273438 829.738281 47.082031 " fill-opacity="1" fill-rule="nonzero"/><path fill="#835b60" d="M 840.515625 30.488281 C 845.796875 24.625 853.238281 21.597656 861.109375 22.0625 C 877.550781 23.023438 888.441406 31.382812 895.863281 44.851562 C 898.882812 50.339844 901.824219 61.816406 902.683594 68.054688 C 904.566406 81.589844 900.640625 94.925781 897.753906 108.015625 C 894.679688 121.976562 891.644531 135.953125 888.605469 149.925781 C 875.183594 211.734375 888.605469 267.855469 888.605469 267.855469 C 878.566406 260.066406 871.023438 249.726562 866.007812 238.128906 C 850.011719 201.15625 858.1875 158.671875 865.679688 120.703125 C 867.78125 110.042969 871.253906 99.71875 873.273438 89.046875 C 876.152344 73.769531 875.921875 54.261719 864.722656 42.550781 C 852.597656 29.886719 835.175781 37.445312 829.136719 52.734375 C 829.136719 52.734375 830.011719 42.179688 840.515625 30.488281 " fill-opacity="1" fill-rule="nonzero"/><g clip-path="url(#66b58eb736)"><path fill="#9d4436" d="M 1199.453125 369.640625 C 1199.453125 361.574219 1192.914062 355.035156 1184.84375 355.035156 L 944.925781 355.035156 C 936.859375 355.035156 930.320312 361.574219 930.320312 369.640625 C 930.320312 377.703125 936.859375 384.238281 944.925781 384.238281 L 1184.84375 384.238281 C 1192.914062 384.238281 1199.453125 377.703125 1199.453125 369.640625 " fill-opacity="1" fill-rule="nonzero"/></g><g clip-path="url(#8b0279e4fe)"><path fill="#bd5242" d="M 930.316406 369.640625 C 930.316406 361.574219 936.855469 355.039062 944.921875 355.039062 L 335.414062 355.039062 C 327.34375 355.039062 320.808594 361.574219 320.808594 369.640625 C 320.808594 377.707031 327.34375 384.242188 335.414062 384.242188 L 944.921875 384.242188 C 936.855469 384.242188 930.316406 377.707031 930.316406 369.640625 " fill-opacity="1" fill-rule="nonzero"/></g><path fill="#e6a279" d="M 570.382812 402.132812 L 415.320312 402.132812 L 415.320312 384.242188 L 570.382812 384.242188 L 570.382812 402.132812 " fill-opacity="1" fill-rule="nonzero"/><g clip-path="url(#0e73a33619)"><path fill="#e6a279" d="M 421.015625 792.890625 L 407.703125 792.890625 L 448.25 402.132812 L 470.097656 402.132812 L 421.015625 792.890625 " fill-opacity="1" fill-rule="nonzero"/></g><g clip-path="url(#93f41a0048)"><path fill="#e6a279" d="M 575.152344 792.890625 L 588.460938 792.890625 L 537.460938 402.132812 L 515.613281 402.132812 L 575.152344 792.890625 " fill-opacity="1" fill-rule="nonzero"/></g><path fill="#e6a279" d="M 1144.980469 402.132812 L 989.917969 402.132812 L 989.917969 384.242188 L 1144.980469 384.242188 L 1144.980469 402.132812 " fill-opacity="1" fill-rule="nonzero"/><g clip-path="url(#44522463ab)"><path fill="#e6a279" d="M 995.605469 792.890625 L 982.296875 792.890625 L 1022.835938 402.132812 L 1044.691406 402.132812 L 995.605469 792.890625 " fill-opacity="1" fill-rule="nonzero"/></g><g clip-path="url(#fba818683e)"><path fill="#e6a279" d="M 1149.742188 792.886719 L 1163.050781 792.886719 L 1112.050781 402.132812 L 1090.203125 402.132812 L 1149.742188 792.886719 " fill-opacity="1" fill-rule="nonzero"/></g><path fill="#b3dfec" d="M 747.550781 340.074219 C 747.550781 342.941406 745.230469 345.261719 742.359375 345.261719 L 553.71875 345.261719 C 550.851562 345.261719 548.527344 342.941406 548.527344 340.074219 L 518.734375 223.335938 C 518.734375 220.472656 521.058594 218.152344 523.925781 218.152344 L 712.570312 218.152344 C 715.4375 218.152344 717.757812 220.472656 717.757812 223.335938 L 747.550781 340.074219 " fill-opacity="1" fill-rule="nonzero"/><path fill="#87abd6" d="M 742.136719 340.074219 C 742.136719 342.941406 739.828125 345.261719 736.992188 345.261719 L 549.917969 345.261719 C 547.078125 345.261719 544.773438 342.941406 544.773438 340.074219 L 514.980469 223.335938 C 514.980469 220.472656 517.285156 218.152344 520.125 218.152344 L 707.199219 218.152344 C 710.039062 218.152344 712.339844 220.472656 712.339844 223.335938 L 742.136719 340.074219 " fill-opacity="1" fill-rule="nonzero"/><path fill="#1a324d" d="M 622.015625 355.039062 L 828.390625 355.039062 L 828.390625 346.90625 L 622.015625 346.90625 L 622.015625 355.039062 " fill-opacity="1" fill-rule="nonzero"/><path fill="#b3dfec" d="M 609.355469 283.835938 C 609.355469 290.824219 615.023438 296.492188 622.015625 296.492188 C 629.011719 296.492188 634.675781 290.824219 634.675781 283.835938 C 634.675781 276.84375 629.011719 271.179688 622.015625 271.179688 C 615.023438 271.179688 609.355469 276.84375 609.355469 283.835938 " fill-opacity="1" fill-rule="nonzero"/><path fill="#5d7db8" d="M 696.792969 345.261719 L 862.671875 345.261719 C 862.671875 345.261719 875.183594 345.65625 875.8125 355.039062 L 696.792969 355.039062 L 696.792969 345.261719 " fill-opacity="1" fill-rule="nonzero"/><path fill="#6f96cd" d="M 541.082031 355.039062 L 754.125 355.039062 C 753.496094 345.65625 740.980469 345.261719 740.980469 345.261719 L 549.050781 345.261719 C 549.050781 345.261719 541.082031 345.347656 541.082031 355.039062 " fill-opacity="1" fill-rule="nonzero"/><g clip-path="url(#205a02a376)"><path fill="#727dc4" d="M 241.035156 53.921875 L 280.976562 53.921875 L 280.976562 63.753906 L 241.035156 63.753906 Z M 241.035156 53.921875 " fill-opacity="1" fill-rule="nonzero"/></g><path fill="#727dc4" d="M 290.664062 53.921875 L 369.433594 53.921875 L 369.433594 63.753906 L 290.664062 63.753906 Z M 290.664062 53.921875 " fill-opacity="1" fill-rule="nonzero"/><g clip-path="url(#2f4896e678)"><path fill="#727dc4" d="M 241.035156 72.242188 L 280.976562 72.242188 L 280.976562 82.074219 L 241.035156 82.074219 Z M 241.035156 72.242188 " fill-opacity="1" fill-rule="nonzero"/></g><path fill="#727dc4" d="M 290.664062 72.242188 L 342.160156 72.242188 L 342.160156 82.074219 L 290.664062 82.074219 Z M 290.664062 72.242188 " fill-opacity="1" fill-rule="nonzero"/><g clip-path="url(#265b09a978)"><path fill="#727dc4" d="M 241.035156 105.144531 L 280.976562 105.144531 L 280.976562 114.976562 L 241.035156 114.976562 Z M 241.035156 105.144531 " fill-opacity="1" fill-rule="nonzero"/></g><path fill="#727dc4" d="M 433.375 153.449219 L 473.316406 153.449219 L 473.316406 163.28125 L 433.375 163.28125 Z M 433.375 153.449219 " fill-opacity="1" fill-rule="nonzero"/><path fill="#727dc4" d="M 290.664062 105.144531 L 311.480469 105.144531 L 311.480469 114.976562 L 290.664062 114.976562 Z M 290.664062 105.144531 " fill-opacity="1" fill-rule="nonzero"/><path fill="#727dc4" d="M 266.71875 123.464844 L 292.652344 123.464844 L 292.652344 133.292969 L 266.71875 133.292969 Z M 266.71875 123.464844 " fill-opacity="1" fill-rule="nonzero"/><path fill="#727dc4" d="M 302.339844 123.464844 L 381.109375 123.464844 L 381.109375 133.292969 L 302.339844 133.292969 Z M 302.339844 123.464844 " fill-opacity="1" fill-rule="nonzero"/><path fill="#727dc4" d="M 390.796875 123.464844 L 469.566406 123.464844 L 469.566406 133.292969 L 390.796875 133.292969 Z M 390.796875 123.464844 " fill-opacity="1" fill-rule="nonzero"/><path fill="#727dc4" d="M 321.167969 105.144531 L 399.9375 105.144531 L 399.9375 114.976562 L 321.167969 114.976562 Z M 321.167969 105.144531 " fill-opacity="1" fill-rule="nonzero"/><path fill="#727dc4" d="M 296.488281 153.449219 L 316.460938 153.449219 L 316.460938 163.28125 L 296.488281 163.28125 Z M 296.488281 153.449219 " fill-opacity="1" fill-rule="nonzero"/><path fill="#727dc4" d="M 324.945312 153.449219 L 424.890625 153.449219 L 424.890625 163.28125 L 324.945312 163.28125 Z M 324.945312 153.449219 " fill-opacity="1" fill-rule="nonzero"/><path fill="#727dc4" d="M 385.503906 171.769531 L 485.453125 171.769531 L 485.453125 181.597656 L 385.503906 181.597656 Z M 385.503906 171.769531 " fill-opacity="1" fill-rule="nonzero"/><path fill="#727dc4" d="M 296.488281 171.769531 L 336.433594 171.769531 L 336.433594 181.597656 L 296.488281 181.597656 Z M 296.488281 171.769531 " fill-opacity="1" fill-rule="nonzero"/><path fill="#727dc4" d="M 346.121094 171.769531 L 377.472656 171.769531 L 377.472656 181.597656 L 346.121094 181.597656 Z M 346.121094 171.769531 " fill-opacity="1" fill-rule="nonzero"/><path fill="#727dc4" d="M 296.488281 190.089844 L 324.183594 190.089844 L 324.183594 199.917969 L 296.488281 199.917969 Z M 296.488281 190.089844 " fill-opacity="1" fill-rule="nonzero"/><path fill="#727dc4" d="M 330.898438 190.089844 L 385.503906 190.089844 L 385.503906 199.917969 L 330.898438 199.917969 Z M 330.898438 190.089844 " fill-opacity="1" fill-rule="nonzero"/><path fill="#727dc4" d="M 276.058594 217.15625 L 316.003906 217.15625 L 316.003906 226.988281 L 276.058594 226.988281 Z M 276.058594 217.15625 " fill-opacity="1" fill-rule="nonzero"/><path fill="#727dc4" d="M 392.222656 190.089844 L 432.164062 190.089844 L 432.164062 199.917969 L 392.222656 199.917969 Z M 392.222656 190.089844 " fill-opacity="1" fill-rule="nonzero"/><path fill="#727dc4" d="M 325.691406 217.15625 L 404.460938 217.15625 L 404.460938 226.988281 L 325.691406 226.988281 Z M 325.691406 217.15625 " fill-opacity="1" fill-rule="nonzero"/><path fill="#727dc4" d="M 296.488281 235.476562 L 336.433594 235.476562 L 336.433594 245.308594 L 296.488281 245.308594 Z M 296.488281 235.476562 " fill-opacity="1" fill-rule="nonzero"/><path fill="#727dc4" d="M 346.121094 235.476562 L 424.890625 235.476562 L 424.890625 245.308594 L 346.121094 245.308594 Z M 346.121094 235.476562 " fill-opacity="1" fill-rule="nonzero"/><path fill="#727dc4" d="M 296.488281 253.796875 L 336.433594 253.796875 L 336.433594 263.625 L 296.488281 263.625 Z M 296.488281 253.796875 " fill-opacity="1" fill-rule="nonzero"/><path fill="#727dc4" d="M 346.121094 253.796875 L 498.578125 253.796875 L 498.578125 263.625 L 346.121094 263.625 Z M 346.121094 253.796875 " fill-opacity="1" fill-rule="nonzero"/><path fill="#727dc4" d="M 384.945312 272.117188 L 424.890625 272.117188 L 424.890625 281.945312 L 384.945312 281.945312 Z M 384.945312 272.117188 " fill-opacity="1" fill-rule="nonzero"/><path fill="#727dc4" d="M 296.488281 272.117188 L 375.257812 272.117188 L 375.257812 281.945312 L 296.488281 281.945312 Z M 296.488281 272.117188 " fill-opacity="1" fill-rule="nonzero"/><path fill="#727dc4" d="M 334.433594 290.433594 L 394.027344 290.433594 L 394.027344 300.265625 L 334.433594 300.265625 Z M 334.433594 290.433594 " fill-opacity="1" fill-rule="nonzero"/><path fill="#727dc4" d="M 435.476562 272.117188 L 475.421875 272.117188 L 475.421875 281.945312 L 435.476562 281.945312 Z M 435.476562 272.117188 " fill-opacity="1" fill-rule="nonzero"/><path fill="#727dc4" d="M 408.480469 290.433594 L 526.003906 290.433594 L 526.003906 300.265625 L 408.480469 300.265625 Z M 408.480469 290.433594 " fill-opacity="1" fill-rule="nonzero"/><path fill="#727dc4" d="M 394.253906 308.753906 L 511.773438 308.753906 L 511.773438 318.585938 L 394.253906 318.585938 Z M 394.253906 308.753906 " fill-opacity="1" fill-rule="nonzero"/><path fill="#727dc4" d="M 296.488281 308.753906 L 324.769531 308.753906 L 324.769531 318.585938 L 296.488281 318.585938 Z M 296.488281 308.753906 " fill-opacity="1" fill-rule="nonzero"/><path fill="#727dc4" d="M 331.628906 308.753906 L 387.394531 308.753906 L 387.394531 318.585938 L 331.628906 318.585938 Z M 331.628906 308.753906 " fill-opacity="1" fill-rule="nonzero"/><path fill="#727dc4" d="M 349.027344 327.074219 L 388.972656 327.074219 L 388.972656 336.902344 L 349.027344 336.902344 Z M 349.027344 327.074219 " fill-opacity="1" fill-rule="nonzero"/><path fill="#727dc4" d="M 398.660156 327.074219 L 477.429688 327.074219 L 477.429688 336.902344 L 398.660156 336.902344 Z M 398.660156 327.074219 " fill-opacity="1" fill-rule="nonzero"/><g clip-path="url(#cdd0b73dad)"><path fill="#727dc4" d="M 349.027344 345.394531 L 404.546875 345.394531 L 404.546875 355.222656 L 349.027344 355.222656 Z M 349.027344 345.394531 " fill-opacity="1" fill-rule="nonzero"/></g><g clip-path="url(#2463698144)"><path fill="#727dc4" d="M 418.011719 345.394531 L 527.492188 345.394531 L 527.492188 355.222656 L 418.011719 355.222656 Z M 418.011719 345.394531 " fill-opacity="1" fill-rule="nonzero"/></g><path fill="#727dc4" d="M 401.089844 77.15625 L 389.023438 77.15625 L 411.199219 63.609375 L 411.199219 71.324219 Z M 411.199219 90.734375 L 389.023438 77.15625 L 401.089844 77.15625 L 411.199219 82.953125 Z M 411.199219 90.734375 " fill-opacity="1" fill-rule="nonzero"/><g clip-path="url(#70dc2c5144)"><path fill="#727dc4" d="M 430.753906 45.359375 L 453.128906 108.355469 L 446.664062 108.355469 L 424.292969 45.359375 Z M 430.753906 45.359375 " fill-opacity="1" fill-rule="nonzero"/></g><path fill="#727dc4" d="M 469.039062 63.609375 L 491.214844 77.15625 L 479.148438 77.15625 L 469.039062 71.324219 Z M 479.148438 77.15625 L 491.214844 77.15625 L 469.039062 90.734375 L 469.039062 82.953125 Z M 479.148438 77.15625 " fill-opacity="1" fill-rule="nonzero"/></svg>