<svg xmlns="http://www.w3.org/2000/svg" xmlns:xlink="http://www.w3.org/1999/xlink" width="1920" zoomAndPan="magnify" viewBox="0 0 1440 809.999993" height="1080" preserveAspectRatio="xMidYMid meet" version="1.0"><defs><clipPath id="eaa0ba1509"><path d="M 755 536 L 790 536 L 790 776.148438 L 755 776.148438 Z M 755 536 " clip-rule="nonzero"/></clipPath><clipPath id="d525f67d60"><path d="M 807 536 L 828 536 L 828 776.148438 L 807 776.148438 Z M 807 536 " clip-rule="nonzero"/></clipPath><clipPath id="aa54e1bd7c"><path d="M 943 536 L 964 536 L 964 776.148438 L 943 776.148438 Z M 943 536 " clip-rule="nonzero"/></clipPath><clipPath id="e89244fe34"><path d="M 892 536 L 913 536 L 913 776.148438 L 892 776.148438 Z M 892 536 " clip-rule="nonzero"/></clipPath><clipPath id="81cd1e4b54"><path d="M 939 380 L 1182.527344 380 L 1182.527344 407 L 939 407 Z M 939 380 " clip-rule="nonzero"/></clipPath><clipPath id="60d23f76de"><path d="M 387.792969 380 L 953 380 L 953 407 L 387.792969 407 Z M 387.792969 380 " clip-rule="nonzero"/></clipPath><clipPath id="82cad4b022"><path d="M 466 422 L 523 422 L 523 776.148438 L 466 776.148438 Z M 466 422 " clip-rule="nonzero"/></clipPath><clipPath id="d2dd33c2dd"><path d="M 564 422 L 630 422 L 630 776.148438 L 564 776.148438 Z M 564 422 " clip-rule="nonzero"/></clipPath><clipPath id="f627703ec7"><path d="M 986 422 L 1043 422 L 1043 776.148438 L 986 776.148438 Z M 986 422 " clip-rule="nonzero"/></clipPath><clipPath id="78997cc9d9"><path d="M 1083 422 L 1150 422 L 1150 776.148438 L 1083 776.148438 Z M 1083 422 " clip-rule="nonzero"/></clipPath><clipPath id="6128c81832"><path d="M 257.335938 43 L 302 43 L 302 55 L 257.335938 55 Z M 257.335938 43 " clip-rule="nonzero"/></clipPath><clipPath id="fd501210cb"><path d="M 257.335938 64 L 302 64 L 302 76 L 257.335938 76 Z M 257.335938 64 " clip-rule="nonzero"/></clipPath><clipPath id="e4c2516bd6"><path d="M 257.335938 100 L 302 100 L 302 112 L 257.335938 112 Z M 257.335938 100 " clip-rule="nonzero"/></clipPath><clipPath id="325e07cb06"><path d="M 377 367 L 439 367 L 439 378.660156 L 377 378.660156 Z M 377 367 " clip-rule="nonzero"/></clipPath><clipPath id="1cb7283c8b"><path d="M 453 367 L 575.230469 367 L 575.230469 378.660156 L 453 378.660156 Z M 453 367 " clip-rule="nonzero"/></clipPath><clipPath id="0cd53cf8e8"><path d="M 460 34.273438 L 493 34.273438 L 493 105 L 460 105 Z M 460 34.273438 " clip-rule="nonzero"/></clipPath></defs><path fill="#33459a" d="M 977.496094 505.285156 C 983.855469 491.648438 972.367188 446.21875 975.914062 431.246094 C 987.769531 381.164062 1009.03125 333.390625 1005.574219 280.074219 C 1003.574219 249.230469 984.449219 232.96875 957.695312 229.847656 C 930.566406 226.6875 885.398438 225.9375 860.207031 238.503906 C 814.476562 261.3125 831.375 316.789062 844.664062 354.382812 C 849.804688 368.914062 855.71875 383.835938 859.226562 398.855469 C 862.585938 413.257812 866.609375 433.882812 860.914062 448.367188 C 858.207031 455.261719 848.484375 468.167969 843.535156 482.253906 C 843.535156 482.253906 868.695312 491.773438 860.914062 514.316406 C 860.914062 514.316406 970.367188 523.386719 977.496094 505.285156 " fill-opacity="1" fill-rule="nonzero"/><path fill="#3b4ea9" d="M 759.113281 528.3125 L 872.5625 528.3125 C 883.714844 528.3125 892.761719 518.003906 892.761719 505.285156 C 892.761719 492.566406 883.714844 482.257812 872.5625 482.257812 L 759.113281 482.257812 C 759.113281 482.257812 732.453125 481.640625 734.035156 508.574219 C 734.035156 508.574219 735.078125 528.3125 759.113281 528.3125 " fill-opacity="1" fill-rule="nonzero"/><path fill="#15182b" d="M 772.285156 536.863281 L 961.210938 536.863281 L 961.210938 528.34375 L 772.285156 528.34375 L 772.285156 536.863281 " fill-opacity="1" fill-rule="nonzero"/><path fill="#2e3660" d="M 772.285156 536.863281 L 824.566406 536.863281 L 824.566406 528.34375 L 772.285156 528.34375 L 772.285156 536.863281 " fill-opacity="1" fill-rule="nonzero"/><g clip-path="url(#eaa0ba1509)"><path fill="#2e3660" d="M 772.285156 536.863281 L 755.578125 776.144531 L 762.773438 776.144531 L 789.15625 536.863281 L 772.285156 536.863281 " fill-opacity="1" fill-rule="nonzero"/></g><g clip-path="url(#d525f67d60)"><path fill="#2e3660" d="M 807.429688 536.863281 L 820.015625 776.144531 L 827.207031 776.144531 L 824.296875 536.863281 L 807.429688 536.863281 " fill-opacity="1" fill-rule="nonzero"/></g><g clip-path="url(#aa54e1bd7c)"><path fill="#15182b" d="M 943.839844 536.863281 L 956.429688 776.144531 L 963.617188 776.144531 L 960.710938 536.863281 L 943.839844 536.863281 " fill-opacity="1" fill-rule="nonzero"/></g><g clip-path="url(#e89244fe34)"><path fill="#15182b" d="M 912.539062 536.863281 L 899.949219 776.144531 L 892.761719 776.144531 L 895.667969 536.863281 L 912.539062 536.863281 " fill-opacity="1" fill-rule="nonzero"/></g><path fill="#243880" d="M 981.410156 505.285156 C 981.410156 518.003906 972.367188 528.3125 961.210938 528.3125 L 876.847656 528.3125 C 865.691406 528.3125 856.648438 518.003906 856.648438 505.285156 C 856.648438 492.566406 865.691406 482.257812 876.847656 482.257812 L 961.210938 482.257812 C 972.367188 482.257812 981.410156 492.566406 981.410156 505.285156 " fill-opacity="1" fill-rule="nonzero"/><path fill="#775256" d="M 822.214844 115.738281 C 817.554688 127.703125 818.269531 141.894531 819.128906 154.46875 C 819.882812 165.527344 825.054688 176.050781 828.0625 186.660156 C 832.125 201.003906 829.589844 215.714844 825.078125 229.71875 C 820.839844 242.882812 812.746094 254.035156 807.636719 266.851562 C 803.539062 277.15625 799.800781 291.175781 806.347656 301.105469 C 813.945312 312.636719 828.453125 316.730469 841.597656 316.855469 C 863.671875 317.070312 885.042969 314.488281 906.960938 312.808594 C 923.683594 311.523438 940.75 310.042969 955.265625 301.003906 C 969.058594 292.417969 978.085938 278.640625 979.9375 262.289062 C 981.59375 247.675781 971.03125 233.140625 961.722656 222.890625 C 952.324219 212.53125 940.734375 205.777344 930.234375 196.757812 C 919.910156 187.882812 918.539062 178.109375 920.734375 165.164062 C 925.109375 139.300781 928.09375 111.691406 903.535156 94.617188 C 890.792969 85.753906 876.84375 84.480469 861.75 84.199219 C 850.410156 83.988281 840.441406 91.65625 833.371094 99.757812 C 829.054688 104.691406 824.625 109.535156 822.214844 115.738281 " fill-opacity="1" fill-rule="nonzero"/><path fill="#ec8675" d="M 920.855469 680.785156 C 922.117188 685.125 925.546875 697.988281 923.734375 703.785156 C 921.523438 710.816406 907.160156 728.097656 907.160156 728.097656 L 900.175781 737.585938 C 900.175781 737.585938 898.292969 748.097656 919.210938 737.667969 C 943.078125 725.761719 962.671875 694.992188 962.671875 694.992188 L 937.191406 670.1875 L 920.855469 680.785156 " fill-opacity="1" fill-rule="nonzero"/><path fill="#232831" d="M 940.515625 693.699219 C 938.980469 694.738281 935.726562 695.957031 933.851562 695.101562 C 932.246094 694.367188 929.179688 691.679688 927.625 692.496094 C 926.296875 693.191406 925.128906 694.117188 923.9375 695.007812 C 924.347656 698.382812 924.417969 701.59375 923.734375 703.785156 C 921.523438 710.816406 907.160156 728.097656 907.160156 728.097656 L 898.277344 738.9375 C 898.277344 738.9375 898.226562 747.636719 916.019531 741.367188 C 938.074219 733.601562 965.925781 696.753906 965.925781 696.753906 L 949.441406 682.121094 C 947.535156 686.71875 944.621094 690.914062 940.515625 693.699219 " fill-opacity="1" fill-rule="nonzero"/><path fill="#184561" d="M 940.515625 693.699219 C 938.980469 694.738281 935.726562 695.957031 933.851562 695.101562 C 932.246094 694.367188 929.179688 691.679688 927.625 692.496094 C 926.296875 693.191406 925.128906 694.117188 923.9375 695.007812 C 924.347656 698.382812 924.417969 701.59375 923.734375 703.785156 C 921.523438 710.816406 907.160156 728.097656 907.160156 728.097656 L 898.277344 738.9375 C 898.277344 738.9375 898.226562 747.636719 916.019531 741.367188 C 938.074219 733.601562 965.925781 696.753906 965.925781 696.753906 L 949.441406 682.121094 C 947.535156 686.71875 944.621094 690.914062 940.515625 693.699219 " fill-opacity="1" fill-rule="nonzero"/><path fill="#fbc8b6" d="M 965.925781 696.753906 C 965.925781 696.753906 938.074219 733.601562 916.019531 741.367188 C 898.226562 747.636719 898.277344 738.9375 898.277344 738.9375 C 898.277344 738.9375 897.808594 753.683594 918.085938 745.28125 C 918.085938 745.28125 944.105469 735.089844 968.988281 699.679688 C 968.988281 699.679688 967.695312 697.933594 965.925781 696.753906 " fill-opacity="1" fill-rule="nonzero"/><path fill="#ffffff" d="M 935.65625 708.21875 C 935.976562 707.738281 935.871094 707.082031 935.402344 706.722656 C 927.980469 701.039062 922.742188 704.050781 922.523438 704.183594 C 921.992188 704.503906 921.820312 705.183594 922.136719 705.722656 C 922.453125 706.242188 923.132812 706.414062 923.660156 706.101562 C 923.863281 705.988281 927.910156 703.796875 934.042969 708.496094 C 934.53125 708.867188 935.234375 708.777344 935.609375 708.285156 L 935.65625 708.21875 " fill-opacity="1" fill-rule="nonzero"/><path fill="#ffffff" d="M 931.109375 713.941406 C 931.398438 713.488281 931.332031 712.878906 930.914062 712.511719 C 925 707.203125 919.96875 709.085938 919.761719 709.171875 C 919.1875 709.390625 918.914062 710.03125 919.132812 710.59375 C 919.355469 711.164062 919.988281 711.445312 920.554688 711.230469 C 920.722656 711.167969 924.59375 709.804688 929.449219 714.148438 C 929.902344 714.558594 930.597656 714.519531 931 714.070312 L 931.109375 713.941406 " fill-opacity="1" fill-rule="nonzero"/><path fill="#ffffff" d="M 928.511719 719.109375 C 928.824219 718.636719 928.757812 717.988281 928.320312 717.601562 C 922.144531 712.074219 917.179688 713.511719 916.96875 713.578125 C 916.355469 713.765625 916.019531 714.417969 916.199219 715.023438 C 916.394531 715.625 917.027344 715.972656 917.640625 715.789062 C 917.824219 715.738281 921.65625 714.746094 926.777344 719.328125 C 927.253906 719.761719 927.988281 719.71875 928.40625 719.242188 L 928.511719 719.109375 " fill-opacity="1" fill-rule="nonzero"/><path fill="#ffffff" d="M 924.613281 723.277344 C 924.925781 722.816406 924.851562 722.191406 924.429688 721.8125 C 918.273438 716.300781 913.75 718.871094 913.558594 718.980469 C 913.019531 719.292969 912.84375 719.988281 913.164062 720.527344 C 913.476562 721.054688 914.160156 721.234375 914.695312 720.925781 C 914.859375 720.84375 918.085938 719.164062 922.933594 723.496094 C 923.390625 723.910156 924.101562 723.867188 924.519531 723.410156 L 924.613281 723.277344 " fill-opacity="1" fill-rule="nonzero"/><path fill="#ffffff" d="M 919.859375 728.363281 C 920.136719 727.9375 920.074219 727.367188 919.683594 727.019531 C 914.058594 721.976562 909.914062 724.328125 909.738281 724.433594 C 909.253906 724.730469 909.097656 725.359375 909.378906 725.847656 C 909.675781 726.335938 910.296875 726.496094 910.789062 726.210938 C 910.929688 726.132812 913.882812 724.589844 918.316406 728.554688 C 918.734375 728.933594 919.390625 728.902344 919.761719 728.476562 L 919.859375 728.363281 " fill-opacity="1" fill-rule="nonzero"/><path fill="#ec8675" d="M 716.941406 701.625 C 716.132812 706.070312 713.476562 719.113281 709.269531 723.5 C 704.15625 728.804688 683.59375 737.875 683.59375 737.875 L 673.113281 743.257812 C 673.113281 743.257812 666.742188 751.828125 690.121094 751.8125 C 716.789062 751.792969 748.042969 732.980469 748.042969 732.980469 L 736.28125 699.421875 L 716.941406 701.625 " fill-opacity="1" fill-rule="nonzero"/><path fill="#232831" d="M 728.78125 721.945312 C 726.945312 722.195312 723.492188 721.835938 722.195312 720.230469 C 721.082031 718.867188 719.535156 715.089844 717.78125 715.125 C 716.277344 715.152344 714.824219 715.464844 713.363281 715.730469 C 712.226562 718.9375 710.855469 721.84375 709.269531 723.5 C 704.15625 728.804688 683.59375 737.875 683.59375 737.875 L 670.8125 743.621094 C 670.8125 743.621094 666.890625 751.386719 685.609375 753.703125 C 708.816406 756.582031 750.167969 736.007812 750.167969 736.007812 L 741.933594 715.558594 C 738.179688 718.828125 733.699219 721.285156 728.78125 721.945312 " fill-opacity="1" fill-rule="nonzero"/><path fill="#184561" d="M 728.78125 721.945312 C 726.945312 722.195312 723.492188 721.835938 722.195312 720.230469 C 721.082031 718.867188 719.535156 715.089844 717.78125 715.125 C 716.277344 715.152344 714.824219 715.464844 713.363281 715.730469 C 712.226562 718.9375 710.855469 721.84375 709.269531 723.5 C 704.15625 728.804688 683.59375 737.875 683.59375 737.875 L 670.8125 743.621094 C 670.8125 743.621094 666.890625 751.386719 685.609375 753.703125 C 708.816406 756.582031 750.167969 736.007812 750.167969 736.007812 L 741.933594 715.558594 C 738.179688 718.828125 733.699219 721.285156 728.78125 721.945312 " fill-opacity="1" fill-rule="nonzero"/><path fill="#fbc8b6" d="M 750.167969 736.007812 C 750.167969 736.007812 708.816406 756.582031 685.609375 753.703125 C 666.890625 751.386719 670.8125 743.621094 670.8125 743.621094 C 670.8125 743.621094 663.816406 756.617188 685.714844 758.128906 C 685.714844 758.128906 713.554688 760.601562 751.609375 739.992188 C 751.609375 739.992188 751.222656 737.851562 750.167969 736.007812 " fill-opacity="1" fill-rule="nonzero"/><path fill="#ffffff" d="M 717.960938 732.777344 C 718.464844 732.492188 718.664062 731.855469 718.402344 731.332031 C 714.296875 722.933594 708.261719 723.292969 708.003906 723.316406 C 707.390625 723.367188 706.929688 723.902344 706.976562 724.519531 C 707.023438 725.128906 707.558594 725.585938 708.167969 725.542969 C 708.398438 725.527344 713.003906 725.371094 716.394531 732.308594 C 716.667969 732.859375 717.332031 733.089844 717.890625 732.820312 L 717.960938 732.777344 " fill-opacity="1" fill-rule="nonzero"/><path fill="#ffffff" d="M 711.335938 735.875 C 711.804688 735.601562 712.015625 735.027344 711.808594 734.511719 C 708.875 727.125 703.535156 726.566406 703.304688 726.546875 C 702.699219 726.492188 702.167969 726.941406 702.109375 727.542969 C 702.058594 728.148438 702.503906 728.6875 703.101562 728.746094 C 703.28125 728.761719 707.351562 729.269531 709.761719 735.320312 C 709.988281 735.890625 710.625 736.167969 711.195312 735.941406 L 711.335938 735.875 " fill-opacity="1" fill-rule="nonzero"/><path fill="#ffffff" d="M 706.714844 739.347656 C 707.203125 739.0625 707.433594 738.453125 707.214844 737.914062 C 704.144531 730.207031 699.066406 729.289062 698.847656 729.25 C 698.214844 729.140625 697.621094 729.574219 697.511719 730.199219 C 697.414062 730.828125 697.832031 731.421875 698.460938 731.53125 C 698.652344 731.570312 702.523438 732.382812 705.066406 738.765625 C 705.296875 739.367188 705.976562 739.65625 706.566406 739.417969 L 706.714844 739.347656 " fill-opacity="1" fill-rule="nonzero"/><path fill="#ffffff" d="M 701.371094 741.339844 C 701.851562 741.066406 702.066406 740.472656 701.851562 739.949219 C 698.800781 732.269531 693.605469 732.550781 693.386719 732.5625 C 692.765625 732.605469 692.296875 733.148438 692.34375 733.773438 C 692.386719 734.390625 692.917969 734.84375 693.535156 734.816406 C 693.71875 734.808594 697.355469 734.75 699.765625 740.785156 C 699.992188 741.363281 700.644531 741.644531 701.226562 741.414062 L 701.371094 741.339844 " fill-opacity="1" fill-rule="nonzero"/><path fill="#ffffff" d="M 694.84375 743.773438 C 695.28125 743.519531 695.480469 742.976562 695.289062 742.492188 C 692.5 735.46875 687.738281 735.734375 687.539062 735.746094 C 686.972656 735.792969 686.546875 736.289062 686.582031 736.851562 C 686.632812 737.417969 687.117188 737.835938 687.679688 737.800781 C 687.847656 737.800781 691.171875 737.734375 693.378906 743.257812 C 693.582031 743.789062 694.183594 744.042969 694.707031 743.835938 L 694.84375 743.773438 " fill-opacity="1" fill-rule="nonzero"/><path fill="#f79885" d="M 672.167969 385.804688 C 670.238281 391.007812 669.105469 393.835938 668.402344 396.242188 C 664.054688 397.273438 665.726562 389.113281 663.082031 387.332031 C 659.433594 384.867188 653.902344 384.589844 649.710938 383.625 C 644.636719 382.449219 635.445312 378.886719 631.839844 375.109375 C 630.140625 373.332031 626.296875 366.460938 632.070312 367.710938 C 635.113281 368.367188 649.917969 371.757812 653.300781 372.464844 C 655.640625 372.960938 658.355469 373.4375 660.765625 373.464844 C 663.238281 373.488281 665.578125 374.007812 670.386719 373.21875 C 670.386719 373.21875 676.390625 379.238281 672.167969 385.804688 " fill-opacity="1" fill-rule="nonzero"/><path fill="#281b39" d="M 784.289062 486.703125 C 784.289062 486.703125 787.214844 456.4375 846.320312 472.199219 C 862.796875 489.386719 941.679688 650.925781 946.988281 670.378906 C 951.148438 685.644531 917.503906 692.929688 917.503906 692.929688 C 917.503906 692.929688 789.921875 520.234375 784.289062 486.703125 " fill-opacity="1" fill-rule="nonzero"/><path fill="#281b39" d="M 710.867188 701.289062 C 710.867188 701.289062 724.457031 707.460938 740.230469 706.242188 C 749.375 705.539062 789.289062 528.996094 787.199219 488.984375 C 751.300781 439.457031 729.929688 461.089844 729.929688 461.089844 C 729.929688 461.089844 708.441406 560.242188 710.867188 701.289062 " fill-opacity="1" fill-rule="nonzero"/><path fill="#775256" d="M 831.273438 108.292969 C 831.273438 108.292969 839.523438 73.789062 886.675781 85.660156 C 886.675781 85.660156 914.519531 92.242188 915.609375 131.359375 C 915.609375 131.359375 913.875 172.097656 877.355469 180.488281 C 877.355469 180.488281 818.140625 184.265625 831.273438 108.292969 " fill-opacity="1" fill-rule="nonzero"/><path fill="#f8a18f" d="M 857.679688 205.429688 L 892.386719 205.480469 L 892.46875 154.019531 L 857.753906 153.964844 L 857.679688 205.429688 " fill-opacity="1" fill-rule="nonzero"/><path fill="#f57c6e" d="M 882.957031 182.054688 C 887.621094 173.542969 889.035156 164.242188 889.621094 154.015625 L 857.753906 153.964844 L 857.6875 198.699219 C 866.824219 197.039062 878.234375 190.664062 882.957031 182.054688 " fill-opacity="1" fill-rule="nonzero"/><path fill="#f79885" d="M 750.972656 342.148438 C 764.335938 327.003906 767.449219 322.863281 772.820312 311.167969 C 784.914062 284.84375 797.515625 258.542969 808.523438 231.734375 C 827.007812 201.601562 848.347656 223.945312 850.640625 226.652344 C 837.78125 260.625 822.808594 288.746094 803.675781 328.117188 C 794.859375 346.261719 780.972656 354.625 761.367188 367.695312 C 761.367188 367.695312 745.578125 355.457031 750.972656 342.148438 " fill-opacity="1" fill-rule="nonzero"/><path fill="#f8a18f" d="M 889.605469 203.226562 L 950.914062 225.792969 L 917.15625 376.9375 L 836.355469 376.9375 L 831.601562 216.945312 L 860.910156 203.226562 L 889.605469 203.226562 " fill-opacity="1" fill-rule="nonzero"/><path fill="#281b39" d="M 834.097656 372.46875 C 834.097656 372.46875 876.027344 367.007812 930.726562 372.820312 C 952.171875 405.613281 953.625 430.71875 949.585938 464.0625 C 949.585938 464.0625 952.585938 494.132812 910.941406 496.667969 L 821.007812 502.171875 L 730.554688 471.121094 C 730.554688 471.121094 725.21875 447.304688 763.417969 426.128906 L 816.476562 405.007812 L 834.097656 372.46875 " fill-opacity="1" fill-rule="nonzero"/><path fill="#162643" d="M 932.71875 397.851562 C 862.433594 388.472656 826.886719 397.722656 826.535156 397.824219 L 825.914062 395.527344 C 826.273438 395.433594 862.195312 386.046875 933.03125 395.496094 L 932.71875 397.851562 " fill-opacity="1" fill-rule="nonzero"/><path fill="#162643" d="M 831.066406 387.753906 L 830.621094 385.421875 C 866.515625 378.515625 909.867188 382.648438 926.839844 384.75 L 926.550781 387.105469 C 909.6875 385.023438 866.628906 380.910156 831.066406 387.753906 " fill-opacity="1" fill-rule="nonzero"/><path fill="#162643" d="M 948.578125 448.746094 C 926.425781 440.117188 915.65625 422.367188 915.65625 394.464844 L 918.03125 394.464844 C 918.03125 421.269531 928.304688 438.296875 949.441406 446.53125 L 948.578125 448.746094 " fill-opacity="1" fill-rule="nonzero"/><path fill="#41337d" d="M 819.929688 267.363281 L 834.097656 372.46875 C 850.433594 380.773438 859.300781 378.855469 884.550781 378.824219 C 892.628906 378.8125 932.34375 381.847656 930.726562 372.820312 C 929.410156 365.496094 933.058594 352.660156 932.875 347.195312 C 932.683594 341.71875 933.832031 338.910156 934.28125 333.433594 C 934.71875 327.96875 934.621094 322.539062 937.304688 317.625 C 942.28125 308.480469 942.210938 294.929688 944.476562 284.65625 C 946.789062 274.230469 948.355469 269.0625 948.355469 258.335938 C 948.359375 252.644531 953.246094 246.265625 954.644531 240.71875 C 956.125 234.832031 955.292969 227.730469 949.480469 225.070312 C 944.3125 222.707031 938.433594 221.226562 933.074219 219.25 C 924.371094 216.035156 909.976562 209.667969 901.273438 206.460938 C 870.152344 233.246094 851.007812 207.863281 851.007812 207.863281 L 831.230469 217.121094 C 831.230469 217.121094 814.871094 228.761719 819.929688 267.363281 " fill-opacity="1" fill-rule="nonzero"/><path fill="#41337d" d="M 939.140625 328.347656 C 940.695312 340.300781 946.339844 360.859375 949.007812 372.46875 C 951.738281 384.347656 952.53125 387.75 953.9375 400.230469 C 955.402344 413.285156 958.535156 425.765625 957.726562 439.453125 C 949.890625 443.414062 932.621094 430.734375 925.410156 426.824219 C 914.753906 421.039062 905.484375 415.257812 894.117188 410.816406 C 880.140625 405.363281 871.5 414.488281 856.480469 413.035156 C 847.621094 412.171875 829.050781 409.980469 822.996094 403.089844 C 820.699219 404.789062 818.6875 404.15625 816.476562 405.007812 C 819.929688 390.285156 825.800781 377.890625 824.964844 361.828125 C 824.132812 345.695312 827.882812 326.820312 826.277344 310.722656 C 822.523438 272.925781 867.097656 265.832031 896.882812 273.15625 C 908.9375 276.121094 928.105469 277.261719 936.46875 288.082031 C 944.847656 298.925781 937.507812 315.804688 939.140625 328.347656 " fill-opacity="1" fill-rule="nonzero"/><path fill="#1d1e32" d="M 872.179688 230.792969 C 867.511719 230.792969 862.585938 230.445312 858.589844 228 C 854.464844 226.566406 844.785156 220.441406 844.785156 215.105469 C 844.785156 214.449219 845.320312 213.917969 845.972656 213.917969 C 846.628906 213.917969 847.164062 214.449219 847.164062 215.105469 C 847.164062 218.714844 855.3125 224.410156 859.476562 225.792969 L 859.730469 225.914062 C 863.953125 228.546875 869.792969 228.46875 874.917969 228.386719 C 875.796875 228.371094 876.652344 228.359375 877.488281 228.359375 C 885.628906 227.777344 896.90625 224.203125 903.5625 217.550781 C 904.023438 217.082031 904.777344 217.082031 905.242188 217.550781 C 905.703125 218.011719 905.703125 218.765625 905.242188 219.226562 C 899.011719 225.460938 888.148438 229.976562 877.566406 230.734375 C 876.667969 230.734375 875.820312 230.75 874.957031 230.761719 C 874.050781 230.777344 873.117188 230.792969 872.179688 230.792969 " fill-opacity="1" fill-rule="nonzero"/><path fill="#1d1e32" d="M 825.253906 339.230469 L 825.101562 339.21875 C 824.449219 339.140625 823.988281 338.539062 824.070312 337.890625 C 824.636719 333.53125 824.609375 322.121094 824.589844 312.953125 L 824.582031 307.949219 C 824.582031 304.496094 823.261719 296.996094 821.984375 289.753906 C 820.894531 283.539062 819.855469 277.664062 819.703125 274.582031 C 819.667969 273.929688 820.175781 273.371094 820.832031 273.339844 C 821.53125 273.289062 822.042969 273.808594 822.074219 274.464844 C 822.222656 277.398438 823.246094 283.199219 824.328125 289.339844 C 825.621094 296.6875 826.957031 304.285156 826.957031 307.949219 L 826.96875 312.945312 C 826.992188 322.667969 827.015625 333.683594 826.429688 338.195312 C 826.351562 338.796875 825.839844 339.230469 825.253906 339.230469 " fill-opacity="1" fill-rule="nonzero"/><path fill="#1d1e32" d="M 919.753906 344.707031 C 919.164062 344.707031 918.652344 344.265625 918.578125 343.664062 C 917.082031 331.367188 916.648438 320.113281 916.265625 310.183594 C 916.089844 305.558594 915.921875 301.183594 915.660156 297.335938 C 914.871094 285.675781 914.386719 273.457031 914.234375 261.023438 C 914.117188 251.710938 914.917969 238.117188 923.164062 227.65625 C 923.570312 227.144531 924.320312 227.058594 924.828125 227.460938 C 925.34375 227.867188 925.433594 228.617188 925.027344 229.128906 C 919.027344 236.746094 916.429688 246.574219 916.613281 260.996094 C 916.765625 273.386719 917.246094 285.554688 918.03125 297.179688 C 918.292969 301.054688 918.460938 305.449219 918.640625 310.09375 C 919.023438 319.976562 919.457031 331.179688 920.9375 343.375 C 921.019531 344.027344 920.550781 344.617188 919.902344 344.699219 L 919.753906 344.707031 " fill-opacity="1" fill-rule="nonzero"/><path fill="#f8a18f" d="M 931.007812 359.058594 C 935.117188 368.605469 947.535156 376.164062 956.925781 376.089844 C 962.957031 376.035156 967.617188 373.363281 971.367188 369.492188 C 972.195312 365.632812 972.566406 361.152344 972.6875 355.78125 C 973.890625 303.394531 962.171875 242.335938 953.289062 229.640625 C 952.511719 226.492188 932.015625 213.863281 924.496094 240.933594 C 924.496094 240.933594 922.371094 286.332031 932.929688 343.984375 C 932.929688 343.984375 936.371094 351.253906 931.007812 359.058594 " fill-opacity="1" fill-rule="nonzero"/><path fill="#f8a18f" d="M 775.257812 373.101562 C 772.351562 370.394531 777.730469 367.886719 777.730469 367.886719 L 805.261719 359.230469 L 834.441406 361.351562 C 837.652344 371.378906 832.574219 373.199219 832.574219 373.199219 C 832.574219 373.199219 789.011719 385.945312 775.257812 373.101562 " fill-opacity="1" fill-rule="nonzero"/><path fill="#f8a18f" d="M 907.894531 142.023438 C 907.960938 148.402344 904.375 155.617188 898.621094 158.230469 C 890.816406 161.789062 887.863281 154.628906 887.890625 147.636719 C 887.925781 142.011719 890.449219 132.324219 896.839844 130.359375 C 902.871094 128.503906 907.84375 136.792969 907.894531 142.023438 " fill-opacity="1" fill-rule="nonzero"/><path fill="#f8a18f" d="M 891.839844 159.273438 C 888.136719 168.453125 883.109375 175.96875 874.433594 181.242188 C 865.929688 186.398438 857.175781 189.019531 849.03125 182.230469 C 842.550781 176.828125 838.375 168.972656 836.050781 161.070312 C 830.699219 142.878906 834.972656 117.757812 846.589844 103.171875 C 859.355469 87.160156 883.839844 90.859375 893.222656 108.839844 C 900.863281 123.488281 897.820312 144.472656 891.839844 159.273438 " fill-opacity="1" fill-rule="nonzero"/><path fill="#f57c6e" d="M 898.476562 152.699219 L 898.792969 152.648438 C 899.425781 152.476562 899.796875 151.824219 899.628906 151.1875 C 898.042969 145.410156 899.144531 139.660156 902.132812 138.101562 C 902.71875 137.804688 902.945312 137.085938 902.640625 136.496094 C 902.339844 135.910156 901.617188 135.683594 901.03125 135.996094 C 896.953125 138.117188 895.394531 144.773438 897.328125 151.824219 C 897.46875 152.347656 897.949219 152.699219 898.476562 152.699219 " fill-opacity="1" fill-rule="nonzero"/><path fill="#f57c6e" d="M 904.34375 143.816406 C 904.800781 143.816406 905.246094 143.550781 905.441406 143.105469 C 905.695312 142.496094 905.425781 141.796875 904.820312 141.535156 C 903.773438 141.082031 900.183594 139.722656 897.695312 141.257812 C 897.136719 141.601562 896.960938 142.335938 897.308594 142.890625 C 897.65625 143.457031 898.390625 143.625 898.949219 143.285156 C 900.0625 142.59375 902.28125 143.027344 903.867188 143.71875 L 904.34375 143.816406 " fill-opacity="1" fill-rule="nonzero"/><path fill="#775256" d="M 888.339844 143.246094 C 889.625 144.632812 894.023438 141.027344 894.957031 138.261719 C 895.046875 137.984375 894.957031 138.261719 894.957031 138.261719 C 895.304688 135.003906 897.492188 132.214844 901.363281 132.078125 C 904.128906 131.984375 906.773438 136.183594 907.558594 138.984375 C 907.753906 136.042969 907.695312 131.816406 907.75 128.679688 C 907.792969 125.707031 907.636719 122.511719 907.269531 119.453125 C 906.433594 112.339844 905.878906 108.4375 902.519531 101.757812 C 898.886719 94.566406 893.207031 88.984375 885.136719 86.933594 C 875.386719 84.457031 859.46875 82.414062 851.167969 88.375 C 846.910156 91.433594 850.441406 92.21875 851.039062 105.609375 C 851.039062 105.609375 889.28125 96.503906 888.339844 143.246094 " fill-opacity="1" fill-rule="nonzero"/><path fill="#1d1e32" d="M 848.085938 137.503906 C 847.960938 139.527344 846.886719 141.105469 845.667969 141.027344 C 844.457031 140.953125 843.578125 139.25 843.703125 137.234375 C 843.832031 135.214844 844.914062 133.636719 846.128906 133.714844 C 847.339844 133.789062 848.21875 135.484375 848.085938 137.503906 " fill-opacity="1" fill-rule="nonzero"/><path fill="#1d1e32" d="M 874.351562 139.152344 C 874.230469 141.175781 873.144531 142.75 871.933594 142.671875 C 870.71875 142.597656 869.84375 140.902344 869.96875 138.878906 C 870.09375 136.863281 871.175781 135.28125 872.390625 135.359375 C 873.609375 135.433594 874.484375 137.132812 874.351562 139.152344 " fill-opacity="1" fill-rule="nonzero"/><path fill="#f57c6e" d="M 878.0625 148.035156 C 877.980469 149.464844 875.269531 150.472656 872.015625 150.257812 C 868.769531 150.0625 866.207031 148.730469 866.296875 147.292969 C 866.390625 145.855469 869.097656 144.863281 872.34375 145.066406 C 875.589844 145.269531 878.152344 146.59375 878.0625 148.035156 " fill-opacity="1" fill-rule="nonzero"/><path fill="#f57c6e" d="M 849.058594 146.214844 C 848.976562 147.648438 846.269531 148.644531 843.019531 148.445312 C 839.773438 148.234375 837.210938 146.90625 837.296875 145.472656 C 837.386719 144.03125 840.097656 143.039062 843.347656 143.246094 C 846.59375 143.445312 849.15625 144.777344 849.058594 146.214844 " fill-opacity="1" fill-rule="nonzero"/><path fill="#775256" d="M 877.859375 132.8125 C 877.300781 132.8125 876.746094 132.542969 876.398438 132.050781 C 875.183594 130.316406 870.761719 129.578125 868.394531 131.207031 C 867.582031 131.765625 866.472656 131.558594 865.90625 130.75 C 865.351562 129.941406 865.554688 128.832031 866.367188 128.269531 C 870.214844 125.617188 876.875 126.507812 879.324219 130.007812 C 879.878906 130.816406 879.691406 131.925781 878.878906 132.492188 C 878.570312 132.707031 878.210938 132.8125 877.859375 132.8125 " fill-opacity="1" fill-rule="nonzero"/><path fill="#775256" d="M 851.324219 132.8125 C 850.765625 132.8125 850.210938 132.546875 849.859375 132.050781 C 848.644531 130.320312 844.222656 129.574219 841.847656 131.203125 C 841.039062 131.769531 839.925781 131.5625 839.371094 130.753906 C 838.808594 129.941406 839.015625 128.832031 839.824219 128.273438 C 843.671875 125.621094 850.332031 126.511719 852.78125 130.007812 C 853.34375 130.8125 853.152344 131.921875 852.34375 132.488281 C 852.039062 132.707031 851.675781 132.8125 851.324219 132.8125 " fill-opacity="1" fill-rule="nonzero"/><path fill="#775256" d="M 834.582031 127.058594 C 830 114.824219 829.101562 94.429688 851.65625 87.460938 C 857.191406 85.753906 870.546875 85.117188 874.726562 90.167969 C 883.988281 101.363281 861.84375 104.597656 855.945312 104.914062 C 846.539062 105.425781 840.054688 107.691406 834.582031 127.058594 " fill-opacity="1" fill-rule="nonzero"/><path fill="#604244" d="M 883.875 94.65625 C 875.101562 89.265625 857.054688 88.960938 850.230469 97.882812 C 850.574219 99.859375 850.890625 102.355469 851.039062 105.609375 C 851.039062 105.609375 884.996094 97.546875 888.113281 135.75 C 893.644531 121.449219 899.039062 103.976562 883.875 94.65625 " fill-opacity="1" fill-rule="nonzero"/><path fill="#604244" d="M 847.554688 106.542969 C 850.078125 105.453125 852.855469 105.078125 855.945312 104.90625 C 861.578125 104.605469 882.019531 101.636719 875.773438 91.617188 C 863.597656 89.054688 850.234375 91.691406 847.554688 106.542969 " fill-opacity="1" fill-rule="nonzero"/><path fill="#f79885" d="M 761.367188 367.695312 C 701.628906 385.582031 710.320312 379.238281 671.070312 384.660156 L 668.6875 373.8125 C 728.636719 353.945312 754.585938 338.042969 754.585938 338.042969 C 754.585938 338.042969 769.78125 346.59375 761.367188 367.695312 " fill-opacity="1" fill-rule="nonzero"/><path fill="#180f1e" d="M 858.625 612.605469 C 831.8125 573.386719 798.300781 523.128906 790.929688 506.421875 C 775.066406 470.5 774.664062 456.632812 802.964844 439.878906 C 815.863281 432.25 833.777344 426 859.34375 420.214844 L 859.867188 422.535156 C 843.941406 426.136719 820.839844 432.070312 804.175781 441.929688 C 777.019531 457.996094 777.40625 469.90625 793.101562 505.460938 C 800.402344 522.003906 833.832031 572.128906 860.585938 611.261719 L 858.625 612.605469 " fill-opacity="1" fill-rule="nonzero"/><path fill="#180f1e" d="M 902.464844 579.609375 C 902.027344 579.609375 901.609375 579.363281 901.398438 578.953125 C 897.214844 570.609375 893.242188 562.089844 889.40625 553.847656 C 884.796875 543.96875 880.039062 533.761719 874.878906 523.792969 C 873.496094 521.101562 872.050781 518.109375 870.542969 514.960938 C 863.847656 501.046875 855.523438 483.726562 843.632812 477.148438 C 843.058594 476.832031 842.851562 476.109375 843.167969 475.535156 C 843.484375 474.960938 844.210938 474.753906 844.78125 475.070312 C 857.339844 482.015625 865.84375 499.710938 872.679688 513.929688 C 874.1875 517.054688 875.617188 520.027344 876.992188 522.699219 C 882.175781 532.714844 886.941406 542.945312 891.558594 552.84375 C 895.390625 561.070312 899.355469 569.578125 903.527344 577.882812 C 903.816406 578.46875 903.578125 579.183594 903 579.480469 L 902.464844 579.609375 " fill-opacity="1" fill-rule="nonzero"/><path fill="#180f1e" d="M 872.835938 501.003906 C 870.375 501.003906 868.015625 500.871094 865.914062 500.503906 C 865.269531 500.390625 864.832031 499.773438 864.945312 499.125 C 865.058594 498.480469 865.6875 498.050781 866.320312 498.160156 C 871.398438 499.046875 878.257812 498.488281 884.308594 498.003906 C 886.289062 497.847656 888.179688 497.695312 889.890625 497.597656 C 896.101562 497.269531 910.636719 496.492188 920.75 494.21875 C 921.386719 494.078125 922.027344 494.476562 922.171875 495.117188 C 922.3125 495.757812 921.910156 496.394531 921.269531 496.535156 C 910.96875 498.855469 896.289062 499.636719 890.019531 499.972656 C 888.328125 500.066406 886.460938 500.210938 884.503906 500.375 C 880.730469 500.675781 876.65625 501.003906 872.835938 501.003906 " fill-opacity="1" fill-rule="nonzero"/><path fill="#180f1e" d="M 864.363281 500.761719 C 863.792969 500.761719 863.28125 500.347656 863.191406 499.761719 C 862.527344 495.542969 862.261719 479.476562 865.449219 473.398438 C 865.753906 472.8125 866.472656 472.59375 867.054688 472.894531 C 867.636719 473.199219 867.859375 473.917969 867.550781 474.5 C 864.910156 479.539062 864.777344 494.566406 865.539062 499.386719 C 865.640625 500.035156 865.199219 500.644531 864.550781 500.746094 L 864.363281 500.761719 " fill-opacity="1" fill-rule="nonzero"/><path fill="#180f1e" d="M 750.480469 681.882812 C 750.203125 681.882812 749.921875 681.789062 749.699219 681.59375 C 749.203125 681.160156 749.152344 680.40625 749.582031 679.917969 C 749.996094 679.441406 750.230469 678.890625 750.304688 678.25 L 750.359375 678 C 759.617188 650.589844 765.527344 623.511719 770.085938 600.628906 C 771.933594 591.359375 773.421875 581.765625 774.871094 572.492188 C 775.308594 569.675781 775.75 566.867188 776.195312 564.058594 C 776.765625 560.480469 777.4375 556.777344 778.160156 552.820312 C 779.78125 543.867188 781.625 533.726562 783.109375 520.550781 C 783.179688 519.898438 783.78125 519.421875 784.417969 519.503906 C 785.070312 519.574219 785.542969 520.160156 785.472656 520.8125 C 783.980469 534.074219 782.125 544.257812 780.496094 553.242188 C 779.78125 557.1875 779.109375 560.871094 778.542969 564.4375 C 778.097656 567.238281 777.65625 570.046875 777.222656 572.859375 C 775.769531 582.15625 774.273438 591.773438 772.414062 601.09375 C 767.851562 624.015625 761.929688 651.148438 752.652344 678.644531 C 752.503906 679.714844 752.078125 680.664062 751.375 681.472656 C 751.140625 681.746094 750.8125 681.882812 750.480469 681.882812 " fill-opacity="1" fill-rule="nonzero"/><path fill="#180f1e" d="M 714.433594 589 L 714.429688 589 C 713.773438 589 713.246094 588.46875 713.246094 587.808594 C 713.316406 571.648438 715.980469 547.109375 718.121094 527.386719 C 718.742188 521.613281 719.324219 516.25 719.789062 511.621094 C 722 489.433594 726.0625 471.03125 732.207031 455.359375 C 735.820312 446.15625 740.65625 439.390625 747.433594 434.058594 C 750.152344 431.921875 757.652344 428.394531 764.90625 424.980469 C 768.132812 423.464844 771.277344 421.984375 773.863281 420.691406 C 774.453125 420.402344 775.164062 420.636719 775.457031 421.222656 C 775.753906 421.8125 775.515625 422.523438 774.929688 422.816406 C 772.324219 424.117188 769.15625 425.609375 765.917969 427.132812 C 759.121094 430.328125 751.410156 433.953125 748.898438 435.929688 C 742.472656 440.984375 737.871094 447.433594 734.421875 456.226562 C 728.355469 471.695312 724.34375 489.890625 722.148438 511.855469 C 721.691406 516.488281 721.105469 521.863281 720.480469 527.644531 C 718.347656 547.308594 715.691406 571.78125 715.621094 587.820312 C 715.621094 588.476562 715.089844 589 714.433594 589 " fill-opacity="1" fill-rule="nonzero"/><path fill="#f8a18f" d="M 933.773438 343.863281 C 902.984375 359.292969 878.671875 361.558594 832.996094 361.636719 L 830.316406 372.160156 C 876.457031 379.417969 940.332031 381.402344 962.519531 374.871094 C 963.445312 360.785156 961.644531 348.203125 933.773438 343.863281 " fill-opacity="1" fill-rule="nonzero"/><path fill="#f57c6e" d="M 855.074219 153.6875 L 854.804688 153.652344 C 853.3125 153.304688 851.800781 152.144531 851.035156 150.765625 C 850.417969 149.660156 850.296875 148.476562 850.667969 147.339844 C 851.09375 146.082031 852.148438 145.3125 853.085938 144.628906 C 853.824219 144.085938 854.523438 143.574219 854.757812 142.957031 C 854.996094 142.34375 855.683594 142.035156 856.296875 142.269531 C 856.910156 142.503906 857.214844 143.195312 856.984375 143.808594 C 856.496094 145.082031 855.429688 145.859375 854.492188 146.550781 C 853.78125 147.070312 853.113281 147.558594 852.9375 148.097656 C 852.765625 148.59375 852.828125 149.082031 853.121094 149.605469 C 853.621094 150.503906 854.636719 151.164062 855.347656 151.332031 C 855.992188 151.484375 856.386719 152.125 856.234375 152.765625 C 856.105469 153.3125 855.613281 153.6875 855.074219 153.6875 " fill-opacity="1" fill-rule="nonzero"/><path fill="#ffffff" d="M 849.730469 158.617188 C 847.710938 158.492188 846.785156 158.488281 847.890625 160.414062 C 849.371094 162.976562 852.25 166.96875 855.464844 165.757812 C 857.757812 164.894531 861.117188 162.585938 862.40625 160.414062 C 863.46875 158.621094 861.433594 158.640625 859.832031 158.617188 C 856.421875 158.570312 853.183594 158.832031 849.730469 158.617188 " fill-opacity="1" fill-rule="nonzero"/><path fill="#f8a18f" d="M 848.097656 101.4375 C 848.097656 101.4375 846.34375 107.636719 843.695312 109.816406 L 848.097656 108.0625 C 848.097656 108.0625 846.683594 109.753906 848.097656 101.4375 " fill-opacity="1" fill-rule="nonzero"/><path fill="#835b60" d="M 857.84375 86.425781 C 862.617188 81.121094 869.347656 78.386719 876.464844 78.804688 C 891.335938 79.675781 901.1875 87.234375 907.898438 99.421875 C 910.628906 104.386719 913.289062 114.769531 914.0625 120.414062 C 915.769531 132.65625 912.21875 144.722656 909.609375 156.5625 C 906.828125 169.195312 904.082031 181.835938 901.332031 194.476562 C 889.195312 250.394531 901.332031 301.164062 901.332031 301.164062 C 892.253906 294.117188 885.433594 284.765625 880.894531 274.269531 C 866.429688 240.824219 873.824219 202.390625 880.597656 168.039062 C 882.5 158.398438 885.640625 149.054688 887.464844 139.402344 C 890.074219 125.582031 889.863281 107.933594 879.734375 97.339844 C 868.769531 85.882812 853.015625 92.71875 847.550781 106.550781 C 847.550781 106.550781 848.34375 97.003906 857.84375 86.425781 " fill-opacity="1" fill-rule="nonzero"/><g clip-path="url(#81cd1e4b54)"><path fill="#9d4436" d="M 1182.453125 393.246094 C 1182.453125 385.949219 1176.539062 380.035156 1169.242188 380.035156 L 952.269531 380.035156 C 944.972656 380.035156 939.058594 385.949219 939.058594 393.246094 C 939.058594 400.542969 944.972656 406.453125 952.269531 406.453125 L 1169.242188 406.453125 C 1176.539062 406.453125 1182.453125 400.542969 1182.453125 393.246094 " fill-opacity="1" fill-rule="nonzero"/></g><g clip-path="url(#60d23f76de)"><path fill="#bd5242" d="M 939.054688 393.246094 C 939.054688 385.949219 944.96875 380.039062 952.265625 380.039062 L 401.046875 380.039062 C 393.75 380.039062 387.835938 385.949219 387.835938 393.246094 C 387.835938 400.546875 393.75 406.453125 401.046875 406.453125 L 952.265625 406.453125 C 944.96875 406.453125 939.054688 400.546875 939.054688 393.246094 " fill-opacity="1" fill-rule="nonzero"/></g><path fill="#e6a279" d="M 613.546875 422.640625 L 473.3125 422.640625 L 473.3125 406.453125 L 613.546875 406.453125 L 613.546875 422.640625 " fill-opacity="1" fill-rule="nonzero"/><g clip-path="url(#82cad4b022)"><path fill="#e6a279" d="M 478.460938 776.144531 L 466.421875 776.144531 L 503.089844 422.640625 L 522.851562 422.640625 L 478.460938 776.144531 " fill-opacity="1" fill-rule="nonzero"/></g><g clip-path="url(#d2dd33c2dd)"><path fill="#e6a279" d="M 617.855469 776.144531 L 629.890625 776.144531 L 583.769531 422.640625 L 564.011719 422.640625 L 617.855469 776.144531 " fill-opacity="1" fill-rule="nonzero"/></g><path fill="#e6a279" d="M 1133.191406 422.640625 L 992.957031 422.640625 L 992.957031 406.457031 L 1133.191406 406.457031 L 1133.191406 422.640625 " fill-opacity="1" fill-rule="nonzero"/><g clip-path="url(#f627703ec7)"><path fill="#e6a279" d="M 998.101562 776.144531 L 986.066406 776.144531 L 1022.726562 422.640625 L 1042.492188 422.640625 L 998.101562 776.144531 " fill-opacity="1" fill-rule="nonzero"/></g><g clip-path="url(#78997cc9d9)"><path fill="#e6a279" d="M 1137.496094 776.144531 L 1149.53125 776.144531 L 1103.410156 422.640625 L 1083.652344 422.640625 L 1137.496094 776.144531 " fill-opacity="1" fill-rule="nonzero"/></g><path fill="#b3dfec" d="M 773.765625 366.5 C 773.765625 369.09375 771.671875 371.191406 769.074219 371.191406 L 598.472656 371.191406 C 595.878906 371.191406 593.777344 369.09375 593.777344 366.5 L 566.835938 260.890625 C 566.835938 258.300781 568.9375 256.199219 571.527344 256.199219 L 742.132812 256.199219 C 744.726562 256.199219 746.824219 258.300781 746.824219 260.890625 L 773.765625 366.5 " fill-opacity="1" fill-rule="nonzero"/><path fill="#87abd6" d="M 768.871094 366.5 C 768.871094 369.09375 766.785156 371.191406 764.21875 371.191406 L 595.039062 371.191406 C 592.46875 371.191406 590.382812 369.09375 590.382812 366.5 L 563.441406 260.890625 C 563.441406 258.300781 565.523438 256.199219 568.09375 256.199219 L 737.277344 256.199219 C 739.84375 256.199219 741.925781 258.300781 741.925781 260.890625 L 768.871094 366.5 " fill-opacity="1" fill-rule="nonzero"/><path fill="#1a324d" d="M 660.238281 380.039062 L 846.878906 380.039062 L 846.878906 372.679688 L 660.238281 372.679688 L 660.238281 380.039062 " fill-opacity="1" fill-rule="nonzero"/><path fill="#b3dfec" d="M 648.789062 315.625 C 648.789062 321.945312 653.914062 327.070312 660.238281 327.070312 C 666.5625 327.070312 671.6875 321.945312 671.6875 315.625 C 671.6875 309.296875 666.5625 304.171875 660.238281 304.171875 C 653.914062 304.171875 648.789062 309.296875 648.789062 315.625 " fill-opacity="1" fill-rule="nonzero"/><path fill="#5d7db8" d="M 727.867188 371.191406 L 877.878906 371.191406 C 877.878906 371.191406 889.195312 371.550781 889.761719 380.039062 L 727.867188 380.039062 L 727.867188 371.191406 " fill-opacity="1" fill-rule="nonzero"/><path fill="#6f96cd" d="M 587.042969 380.039062 L 779.710938 380.039062 C 779.144531 371.550781 767.828125 371.191406 767.828125 371.191406 L 594.253906 371.191406 C 594.253906 371.191406 587.042969 371.269531 587.042969 380.039062 " fill-opacity="1" fill-rule="nonzero"/><g clip-path="url(#6128c81832)"><path fill="#727dc4" d="M 257.335938 43.796875 L 301.664062 43.796875 L 301.664062 54.722656 L 257.335938 54.722656 Z M 257.335938 43.796875 " fill-opacity="1" fill-rule="nonzero"/></g><path fill="#727dc4" d="M 312.414062 43.796875 L 399.828125 43.796875 L 399.828125 54.722656 L 312.414062 54.722656 Z M 312.414062 43.796875 " fill-opacity="1" fill-rule="nonzero"/><g clip-path="url(#fd501210cb)"><path fill="#727dc4" d="M 257.335938 64.15625 L 301.664062 64.15625 L 301.664062 75.082031 L 257.335938 75.082031 Z M 257.335938 64.15625 " fill-opacity="1" fill-rule="nonzero"/></g><path fill="#727dc4" d="M 312.414062 64.15625 L 369.5625 64.15625 L 369.5625 75.082031 L 312.414062 75.082031 Z M 312.414062 64.15625 " fill-opacity="1" fill-rule="nonzero"/><g clip-path="url(#e4c2516bd6)"><path fill="#727dc4" d="M 257.335938 100.722656 L 301.664062 100.722656 L 301.664062 111.648438 L 257.335938 111.648438 Z M 257.335938 100.722656 " fill-opacity="1" fill-rule="nonzero"/></g><path fill="#727dc4" d="M 470.785156 154.410156 L 515.113281 154.410156 L 515.113281 165.332031 L 470.785156 165.332031 Z M 470.785156 154.410156 " fill-opacity="1" fill-rule="nonzero"/><path fill="#727dc4" d="M 312.414062 100.722656 L 335.515625 100.722656 L 335.515625 111.648438 L 312.414062 111.648438 Z M 312.414062 100.722656 " fill-opacity="1" fill-rule="nonzero"/><path fill="#727dc4" d="M 285.839844 121.082031 L 314.621094 121.082031 L 314.621094 132.007812 L 285.839844 132.007812 Z M 285.839844 121.082031 " fill-opacity="1" fill-rule="nonzero"/><path fill="#727dc4" d="M 325.371094 121.082031 L 412.785156 121.082031 L 412.785156 132.007812 L 325.371094 132.007812 Z M 325.371094 121.082031 " fill-opacity="1" fill-rule="nonzero"/><path fill="#727dc4" d="M 423.539062 121.082031 L 510.953125 121.082031 L 510.953125 132.007812 L 423.539062 132.007812 Z M 423.539062 121.082031 " fill-opacity="1" fill-rule="nonzero"/><path fill="#727dc4" d="M 346.269531 100.722656 L 433.683594 100.722656 L 433.683594 111.648438 L 346.269531 111.648438 Z M 346.269531 100.722656 " fill-opacity="1" fill-rule="nonzero"/><path fill="#727dc4" d="M 318.878906 154.410156 L 341.042969 154.410156 L 341.042969 165.332031 L 318.878906 165.332031 Z M 318.878906 154.410156 " fill-opacity="1" fill-rule="nonzero"/><path fill="#727dc4" d="M 350.457031 154.410156 L 461.371094 154.410156 L 461.371094 165.332031 L 350.457031 165.332031 Z M 350.457031 154.410156 " fill-opacity="1" fill-rule="nonzero"/><path fill="#727dc4" d="M 417.664062 174.769531 L 528.582031 174.769531 L 528.582031 185.691406 L 417.664062 185.691406 Z M 417.664062 174.769531 " fill-opacity="1" fill-rule="nonzero"/><path fill="#727dc4" d="M 318.878906 174.769531 L 363.207031 174.769531 L 363.207031 185.691406 L 318.878906 185.691406 Z M 318.878906 174.769531 " fill-opacity="1" fill-rule="nonzero"/><path fill="#727dc4" d="M 373.957031 174.769531 L 408.75 174.769531 L 408.75 185.691406 L 373.957031 185.691406 Z M 373.957031 174.769531 " fill-opacity="1" fill-rule="nonzero"/><path fill="#727dc4" d="M 318.878906 195.128906 L 349.609375 195.128906 L 349.609375 206.050781 L 318.878906 206.050781 Z M 318.878906 195.128906 " fill-opacity="1" fill-rule="nonzero"/><path fill="#727dc4" d="M 357.0625 195.128906 L 417.664062 195.128906 L 417.664062 206.050781 L 357.0625 206.050781 Z M 357.0625 195.128906 " fill-opacity="1" fill-rule="nonzero"/><path fill="#727dc4" d="M 296.207031 225.210938 L 340.535156 225.210938 L 340.535156 236.136719 L 296.207031 236.136719 Z M 296.207031 225.210938 " fill-opacity="1" fill-rule="nonzero"/><path fill="#727dc4" d="M 425.117188 195.128906 L 469.445312 195.128906 L 469.445312 206.050781 L 425.117188 206.050781 Z M 425.117188 195.128906 " fill-opacity="1" fill-rule="nonzero"/><path fill="#727dc4" d="M 351.285156 225.210938 L 438.699219 225.210938 L 438.699219 236.136719 L 351.285156 236.136719 Z M 351.285156 225.210938 " fill-opacity="1" fill-rule="nonzero"/><path fill="#727dc4" d="M 318.878906 245.570312 L 363.207031 245.570312 L 363.207031 256.496094 L 318.878906 256.496094 Z M 318.878906 245.570312 " fill-opacity="1" fill-rule="nonzero"/><path fill="#727dc4" d="M 373.957031 245.570312 L 461.371094 245.570312 L 461.371094 256.496094 L 373.957031 256.496094 Z M 373.957031 245.570312 " fill-opacity="1" fill-rule="nonzero"/><path fill="#727dc4" d="M 318.878906 265.929688 L 363.207031 265.929688 L 363.207031 276.855469 L 318.878906 276.855469 Z M 318.878906 265.929688 " fill-opacity="1" fill-rule="nonzero"/><path fill="#727dc4" d="M 373.957031 265.929688 L 543.148438 265.929688 L 543.148438 276.855469 L 373.957031 276.855469 Z M 373.957031 265.929688 " fill-opacity="1" fill-rule="nonzero"/><path fill="#727dc4" d="M 417.046875 286.289062 L 461.371094 286.289062 L 461.371094 297.214844 L 417.046875 297.214844 Z M 417.046875 286.289062 " fill-opacity="1" fill-rule="nonzero"/><path fill="#727dc4" d="M 318.878906 286.289062 L 406.292969 286.289062 L 406.292969 297.214844 L 318.878906 297.214844 Z M 318.878906 286.289062 " fill-opacity="1" fill-rule="nonzero"/><path fill="#727dc4" d="M 360.988281 306.648438 L 427.125 306.648438 L 427.125 317.574219 L 360.988281 317.574219 Z M 360.988281 306.648438 " fill-opacity="1" fill-rule="nonzero"/><path fill="#727dc4" d="M 473.125 286.289062 L 517.449219 286.289062 L 517.449219 297.214844 L 473.125 297.214844 Z M 473.125 286.289062 " fill-opacity="1" fill-rule="nonzero"/><path fill="#727dc4" d="M 443.164062 306.648438 L 573.582031 306.648438 L 573.582031 317.574219 L 443.164062 317.574219 Z M 443.164062 306.648438 " fill-opacity="1" fill-rule="nonzero"/><path fill="#727dc4" d="M 427.371094 327.007812 L 557.792969 327.007812 L 557.792969 337.933594 L 427.371094 337.933594 Z M 427.371094 327.007812 " fill-opacity="1" fill-rule="nonzero"/><path fill="#727dc4" d="M 318.878906 327.007812 L 350.261719 327.007812 L 350.261719 337.933594 L 318.878906 337.933594 Z M 318.878906 327.007812 " fill-opacity="1" fill-rule="nonzero"/><path fill="#727dc4" d="M 357.875 327.007812 L 419.761719 327.007812 L 419.761719 337.933594 L 357.875 337.933594 Z M 357.875 327.007812 " fill-opacity="1" fill-rule="nonzero"/><path fill="#727dc4" d="M 377.183594 347.367188 L 421.511719 347.367188 L 421.511719 358.292969 L 377.183594 358.292969 Z M 377.183594 347.367188 " fill-opacity="1" fill-rule="nonzero"/><path fill="#727dc4" d="M 432.261719 347.367188 L 519.675781 347.367188 L 519.675781 358.292969 L 432.261719 358.292969 Z M 432.261719 347.367188 " fill-opacity="1" fill-rule="nonzero"/><g clip-path="url(#325e07cb06)"><path fill="#727dc4" d="M 377.183594 367.726562 L 438.796875 367.726562 L 438.796875 378.652344 L 377.183594 378.652344 Z M 377.183594 367.726562 " fill-opacity="1" fill-rule="nonzero"/></g><g clip-path="url(#1cb7283c8b)"><path fill="#727dc4" d="M 453.738281 367.726562 L 575.238281 367.726562 L 575.238281 378.652344 L 453.738281 378.652344 Z M 453.738281 367.726562 " fill-opacity="1" fill-rule="nonzero"/></g><path fill="#727dc4" d="M 434.960938 69.617188 L 421.570312 69.617188 L 446.179688 54.5625 L 446.179688 63.136719 Z M 446.179688 84.710938 L 421.570312 69.617188 L 434.960938 69.617188 L 446.179688 76.058594 Z M 446.179688 84.710938 " fill-opacity="1" fill-rule="nonzero"/><g clip-path="url(#0cd53cf8e8)"><path fill="#727dc4" d="M 467.878906 34.277344 L 492.710938 104.292969 L 485.539062 104.292969 L 460.707031 34.277344 Z M 467.878906 34.277344 " fill-opacity="1" fill-rule="nonzero"/></g><path fill="#727dc4" d="M 510.367188 54.5625 L 534.976562 69.617188 L 521.585938 69.617188 L 510.367188 63.136719 Z M 521.585938 69.617188 L 534.976562 69.617188 L 510.367188 84.710938 L 510.367188 76.058594 Z M 521.585938 69.617188 " fill-opacity="1" fill-rule="nonzero"/></svg>