<svg xmlns="http://www.w3.org/2000/svg" xmlns:xlink="http://www.w3.org/1999/xlink" width="1920" zoomAndPan="magnify" viewBox="0 0 1440 809.999993" height="1080" preserveAspectRatio="xMidYMid meet" version="1.0"><defs><clipPath id="e5107997e6"><path d="M 784 468 L 804 468 L 804 603.832031 L 784 603.832031 Z M 784 468 " clip-rule="nonzero"/></clipPath><clipPath id="5adf212f3e"><path d="M 813 468 L 826 468 L 826 603.832031 L 813 603.832031 Z M 813 468 " clip-rule="nonzero"/></clipPath><clipPath id="8a75e9cd84"><path d="M 891 468 L 903 468 L 903 603.832031 L 891 603.832031 Z M 891 468 " clip-rule="nonzero"/></clipPath><clipPath id="16e2170c21"><path d="M 862 468 L 874 468 L 874 603.832031 L 862 603.832031 Z M 862 468 " clip-rule="nonzero"/></clipPath><clipPath id="43ac7bce8b"><path d="M 888 379 L 1026.28125 379 L 1026.28125 395 L 888 395 Z M 888 379 " clip-rule="nonzero"/></clipPath><clipPath id="bc53590cd2"><path d="M 576.28125 379 L 896 379 L 896 395 L 576.28125 395 Z M 576.28125 379 " clip-rule="nonzero"/></clipPath><clipPath id="a9e3cde427"><path d="M 620 403 L 653 403 L 653 603.832031 L 620 603.832031 Z M 620 403 " clip-rule="nonzero"/></clipPath><clipPath id="86fa67a706"><path d="M 676 403 L 714 403 L 714 603.832031 L 676 603.832031 Z M 676 403 " clip-rule="nonzero"/></clipPath><clipPath id="c7d46a2f9c"><path d="M 915 403 L 947 403 L 947 603.832031 L 915 603.832031 Z M 915 403 " clip-rule="nonzero"/></clipPath><clipPath id="4363e82afc"><path d="M 970 403 L 1008 403 L 1008 603.832031 L 970 603.832031 Z M 970 403 " clip-rule="nonzero"/></clipPath><clipPath id="ed3287790a"><path d="M 414.050781 271 L 444 271 L 444 280 L 414.050781 280 Z M 414.050781 271 " clip-rule="nonzero"/></clipPath><clipPath id="dc18bbbb5e"><path d="M 414.050781 285 L 444 285 L 444 293 L 414.050781 293 Z M 414.050781 285 " clip-rule="nonzero"/></clipPath><clipPath id="73a7d02c3f"><path d="M 414.050781 309 L 444 309 L 444 318 L 414.050781 318 Z M 414.050781 309 " clip-rule="nonzero"/></clipPath><clipPath id="bc2094c35d"><path d="M 494 488 L 536 488 L 536 495.691406 L 494 495.691406 Z M 494 488 " clip-rule="nonzero"/></clipPath><clipPath id="b096aa2568"><path d="M 545 488 L 627.050781 488 L 627.050781 495.691406 L 545 495.691406 Z M 545 488 " clip-rule="nonzero"/></clipPath><clipPath id="6e34fc9083"><path d="M 550 265.441406 L 572 265.441406 L 572 313 L 550 313 Z M 550 265.441406 " clip-rule="nonzero"/></clipPath></defs><path fill="#33459a" d="M 910.1875 450.539062 C 913.789062 442.820312 907.28125 417.109375 909.292969 408.632812 C 916.003906 380.292969 928.042969 353.253906 926.085938 323.078125 C 924.953125 305.625 914.125 296.421875 898.976562 294.65625 C 883.617188 292.863281 858.039062 292.441406 843.773438 299.550781 C 817.882812 312.460938 827.449219 343.859375 834.976562 365.132812 C 837.882812 373.359375 841.234375 381.800781 843.21875 390.304688 C 845.125 398.453125 847.398438 410.128906 844.175781 418.324219 C 842.640625 422.226562 837.136719 429.53125 834.335938 437.503906 C 834.335938 437.503906 848.582031 442.890625 844.175781 455.648438 C 844.175781 455.648438 906.148438 460.78125 910.1875 450.539062 " fill-opacity="1" fill-rule="nonzero"/><path fill="#3b4ea9" d="M 786.535156 463.570312 L 850.773438 463.570312 C 857.085938 463.570312 862.210938 457.734375 862.210938 450.539062 C 862.210938 443.339844 857.085938 437.507812 850.773438 437.507812 L 786.535156 437.507812 C 786.535156 437.507812 771.4375 437.15625 772.335938 452.398438 C 772.335938 452.398438 772.925781 463.570312 786.535156 463.570312 " fill-opacity="1" fill-rule="nonzero"/><path fill="#15182b" d="M 793.992188 468.410156 L 900.964844 468.410156 L 900.964844 463.589844 L 793.992188 463.589844 L 793.992188 468.410156 " fill-opacity="1" fill-rule="nonzero"/><path fill="#2e3660" d="M 793.992188 468.410156 L 823.59375 468.410156 L 823.59375 463.589844 L 793.992188 463.589844 L 793.992188 468.410156 " fill-opacity="1" fill-rule="nonzero"/><g clip-path="url(#e5107997e6)"><path fill="#2e3660" d="M 793.992188 468.410156 L 784.535156 603.832031 L 788.605469 603.832031 L 803.546875 468.410156 L 793.992188 468.410156 " fill-opacity="1" fill-rule="nonzero"/></g><g clip-path="url(#5adf212f3e)"><path fill="#2e3660" d="M 813.890625 468.410156 L 821.015625 603.832031 L 825.089844 603.832031 L 823.441406 468.410156 L 813.890625 468.410156 " fill-opacity="1" fill-rule="nonzero"/></g><g clip-path="url(#8a75e9cd84)"><path fill="#15182b" d="M 891.128906 468.410156 L 898.257812 603.832031 L 902.328125 603.832031 L 900.683594 468.410156 L 891.128906 468.410156 " fill-opacity="1" fill-rule="nonzero"/></g><g clip-path="url(#16e2170c21)"><path fill="#15182b" d="M 873.40625 468.410156 L 866.28125 603.832031 L 862.210938 603.832031 L 863.855469 468.410156 L 873.40625 468.410156 " fill-opacity="1" fill-rule="nonzero"/></g><path fill="#243880" d="M 912.40625 450.539062 C 912.40625 457.734375 907.28125 463.570312 900.964844 463.570312 L 853.199219 463.570312 C 846.882812 463.570312 841.761719 457.734375 841.761719 450.539062 C 841.761719 443.339844 846.882812 437.507812 853.199219 437.507812 L 900.964844 437.507812 C 907.28125 437.507812 912.40625 443.339844 912.40625 450.539062 " fill-opacity="1" fill-rule="nonzero"/><path fill="#775256" d="M 822.261719 230.074219 C 819.625 236.84375 820.03125 244.878906 820.515625 251.992188 C 820.945312 258.25 823.871094 264.207031 825.574219 270.210938 C 827.875 278.328125 826.4375 286.65625 823.882812 294.582031 C 821.484375 302.03125 816.902344 308.34375 814.011719 315.597656 C 811.691406 321.425781 809.570312 329.363281 813.277344 334.980469 C 817.582031 341.507812 825.796875 343.824219 833.238281 343.894531 C 845.738281 344.015625 857.839844 342.558594 870.25 341.605469 C 879.71875 340.878906 889.378906 340.039062 897.601562 334.925781 C 905.410156 330.066406 910.519531 322.269531 911.570312 313.015625 C 912.507812 304.742188 906.527344 296.515625 901.257812 290.714844 C 895.933594 284.851562 889.371094 281.03125 883.425781 275.925781 C 877.582031 270.902344 876.804688 265.375 878.046875 258.042969 C 880.523438 243.410156 882.214844 227.78125 868.308594 218.121094 C 861.09375 213.105469 853.195312 212.382812 844.648438 212.222656 C 838.230469 212.105469 832.585938 216.445312 828.578125 221.027344 C 826.136719 223.820312 823.628906 226.5625 822.261719 230.074219 " fill-opacity="1" fill-rule="nonzero"/><path fill="#ec8675" d="M 878.117188 549.863281 C 878.832031 552.320312 880.773438 559.597656 879.746094 562.878906 C 878.496094 566.855469 870.363281 576.636719 870.363281 576.636719 L 866.40625 582.007812 C 866.40625 582.007812 865.339844 587.957031 877.1875 582.054688 C 890.699219 575.316406 901.792969 557.902344 901.792969 557.902344 L 887.367188 543.863281 L 878.117188 549.863281 " fill-opacity="1" fill-rule="nonzero"/><path fill="#232831" d="M 889.246094 557.171875 C 888.378906 557.757812 886.539062 558.449219 885.472656 557.964844 C 884.566406 557.550781 882.828125 556.027344 881.949219 556.488281 C 881.195312 556.882812 880.535156 557.40625 879.863281 557.910156 C 880.09375 559.820312 880.132812 561.636719 879.746094 562.878906 C 878.496094 566.855469 870.363281 576.636719 870.363281 576.636719 L 865.332031 582.773438 C 865.332031 582.773438 865.304688 587.695312 875.378906 584.148438 C 887.867188 579.753906 903.636719 558.898438 903.636719 558.898438 L 894.300781 550.617188 C 893.222656 553.21875 891.570312 555.59375 889.246094 557.171875 " fill-opacity="1" fill-rule="nonzero"/><path fill="#184561" d="M 889.246094 557.171875 C 888.378906 557.757812 886.539062 558.449219 885.472656 557.964844 C 884.566406 557.550781 882.828125 556.027344 881.949219 556.488281 C 881.195312 556.882812 880.535156 557.40625 879.863281 557.910156 C 880.09375 559.820312 880.132812 561.636719 879.746094 562.878906 C 878.496094 566.855469 870.363281 576.636719 870.363281 576.636719 L 865.332031 582.773438 C 865.332031 582.773438 865.304688 587.695312 875.378906 584.148438 C 887.867188 579.753906 903.636719 558.898438 903.636719 558.898438 L 894.300781 550.617188 C 893.222656 553.21875 891.570312 555.59375 889.246094 557.171875 " fill-opacity="1" fill-rule="nonzero"/><path fill="#fbc8b6" d="M 903.636719 558.898438 C 903.636719 558.898438 887.867188 579.753906 875.378906 584.148438 C 865.304688 587.695312 865.332031 582.773438 865.332031 582.773438 C 865.332031 582.773438 865.066406 591.121094 876.546875 586.363281 C 876.546875 586.363281 891.28125 580.59375 905.371094 560.554688 C 905.371094 560.554688 904.636719 559.566406 903.636719 558.898438 " fill-opacity="1" fill-rule="nonzero"/><path fill="#ffffff" d="M 886.496094 565.386719 C 886.675781 565.117188 886.617188 564.742188 886.355469 564.542969 C 882.152344 561.324219 879.183594 563.03125 879.058594 563.105469 C 878.761719 563.285156 878.660156 563.671875 878.84375 563.976562 C 879.019531 564.269531 879.40625 564.367188 879.703125 564.191406 C 879.820312 564.125 882.113281 562.886719 885.582031 565.546875 C 885.859375 565.753906 886.257812 565.703125 886.46875 565.425781 L 886.496094 565.386719 " fill-opacity="1" fill-rule="nonzero"/><path fill="#ffffff" d="M 883.921875 568.625 C 884.085938 568.371094 884.046875 568.023438 883.8125 567.816406 C 880.464844 564.8125 877.613281 565.878906 877.496094 565.925781 C 877.171875 566.050781 877.015625 566.414062 877.140625 566.734375 C 877.265625 567.054688 877.625 567.214844 877.945312 567.09375 C 878.042969 567.058594 880.234375 566.285156 882.984375 568.746094 C 883.238281 568.976562 883.632812 568.953125 883.859375 568.699219 L 883.921875 568.625 " fill-opacity="1" fill-rule="nonzero"/><path fill="#ffffff" d="M 882.449219 571.550781 C 882.628906 571.285156 882.589844 570.917969 882.34375 570.699219 C 878.84375 567.570312 876.035156 568.382812 875.917969 568.421875 C 875.566406 568.527344 875.378906 568.894531 875.480469 569.242188 C 875.589844 569.582031 875.949219 569.777344 876.296875 569.671875 C 876.402344 569.644531 878.570312 569.082031 881.46875 571.675781 C 881.738281 571.921875 882.15625 571.894531 882.390625 571.625 L 882.449219 571.550781 " fill-opacity="1" fill-rule="nonzero"/><path fill="#ffffff" d="M 880.246094 573.910156 C 880.421875 573.652344 880.378906 573.296875 880.140625 573.082031 C 876.65625 569.960938 874.09375 571.414062 873.984375 571.476562 C 873.679688 571.65625 873.582031 572.050781 873.761719 572.355469 C 873.9375 572.652344 874.324219 572.753906 874.628906 572.582031 C 874.722656 572.53125 876.546875 571.582031 879.292969 574.035156 C 879.550781 574.269531 879.953125 574.246094 880.191406 573.984375 L 880.246094 573.910156 " fill-opacity="1" fill-rule="nonzero"/><path fill="#ffffff" d="M 877.550781 576.789062 C 877.710938 576.546875 877.675781 576.226562 877.453125 576.027344 C 874.269531 573.171875 871.921875 574.503906 871.820312 574.566406 C 871.546875 574.730469 871.457031 575.089844 871.617188 575.367188 C 871.785156 575.640625 872.136719 575.734375 872.414062 575.570312 C 872.496094 575.527344 874.167969 574.652344 876.679688 576.898438 C 876.917969 577.113281 877.285156 577.09375 877.496094 576.855469 L 877.550781 576.789062 " fill-opacity="1" fill-rule="nonzero"/><path fill="#ec8675" d="M 762.65625 561.65625 C 762.199219 564.171875 760.691406 571.554688 758.3125 574.035156 C 755.414062 577.039062 743.773438 582.171875 743.773438 582.171875 L 737.839844 585.21875 C 737.839844 585.21875 734.230469 590.070312 747.46875 590.058594 C 762.570312 590.050781 780.265625 579.402344 780.265625 579.402344 L 773.605469 560.410156 L 762.65625 561.65625 " fill-opacity="1" fill-rule="nonzero"/><path fill="#232831" d="M 769.359375 573.15625 C 768.320312 573.296875 766.363281 573.09375 765.628906 572.1875 C 765 571.414062 764.125 569.277344 763.128906 569.296875 C 762.28125 569.3125 761.457031 569.488281 760.628906 569.640625 C 759.984375 571.453125 759.210938 573.097656 758.3125 574.035156 C 755.414062 577.039062 743.773438 582.171875 743.773438 582.171875 L 736.535156 585.421875 C 736.535156 585.421875 734.316406 589.816406 744.914062 591.128906 C 758.054688 592.757812 781.46875 581.117188 781.46875 581.117188 L 776.808594 569.542969 C 774.679688 571.390625 772.144531 572.78125 769.359375 573.15625 " fill-opacity="1" fill-rule="nonzero"/><path fill="#184561" d="M 769.359375 573.15625 C 768.320312 573.296875 766.363281 573.09375 765.628906 572.1875 C 765 571.414062 764.125 569.277344 763.128906 569.296875 C 762.28125 569.3125 761.457031 569.488281 760.628906 569.640625 C 759.984375 571.453125 759.210938 573.097656 758.3125 574.035156 C 755.414062 577.039062 743.773438 582.171875 743.773438 582.171875 L 736.535156 585.421875 C 736.535156 585.421875 734.316406 589.816406 744.914062 591.128906 C 758.054688 592.757812 781.46875 581.117188 781.46875 581.117188 L 776.808594 569.542969 C 774.679688 571.390625 772.144531 572.78125 769.359375 573.15625 " fill-opacity="1" fill-rule="nonzero"/><path fill="#fbc8b6" d="M 781.46875 581.117188 C 781.46875 581.117188 758.054688 592.757812 744.914062 591.128906 C 734.316406 589.816406 736.535156 585.421875 736.535156 585.421875 C 736.535156 585.421875 732.574219 592.777344 744.976562 593.636719 C 744.976562 593.636719 760.738281 595.035156 782.285156 583.371094 C 782.285156 583.371094 782.066406 582.160156 781.46875 581.117188 " fill-opacity="1" fill-rule="nonzero"/><path fill="#ffffff" d="M 763.234375 579.289062 C 763.519531 579.125 763.628906 578.765625 763.484375 578.46875 C 761.15625 573.714844 757.742188 573.921875 757.59375 573.933594 C 757.246094 573.960938 756.988281 574.261719 757.011719 574.613281 C 757.039062 574.957031 757.34375 575.21875 757.6875 575.191406 C 757.816406 575.183594 760.425781 575.097656 762.347656 579.019531 C 762.5 579.332031 762.875 579.464844 763.191406 579.3125 L 763.234375 579.289062 " fill-opacity="1" fill-rule="nonzero"/><path fill="#ffffff" d="M 759.480469 581.039062 C 759.746094 580.886719 759.867188 580.5625 759.75 580.269531 C 758.089844 576.089844 755.0625 575.773438 754.933594 575.761719 C 754.589844 575.730469 754.292969 575.984375 754.257812 576.324219 C 754.230469 576.667969 754.480469 576.972656 754.820312 577.003906 C 754.921875 577.015625 757.226562 577.300781 758.589844 580.726562 C 758.71875 581.046875 759.078125 581.207031 759.402344 581.078125 L 759.480469 581.039062 " fill-opacity="1" fill-rule="nonzero"/><path fill="#ffffff" d="M 756.867188 583.007812 C 757.140625 582.84375 757.269531 582.5 757.148438 582.195312 C 755.410156 577.832031 752.535156 577.3125 752.410156 577.289062 C 752.050781 577.230469 751.714844 577.472656 751.65625 577.828125 C 751.601562 578.183594 751.835938 578.519531 752.191406 578.582031 C 752.300781 578.601562 754.492188 579.0625 755.929688 582.675781 C 756.0625 583.015625 756.445312 583.179688 756.78125 583.046875 L 756.867188 583.007812 " fill-opacity="1" fill-rule="nonzero"/><path fill="#ffffff" d="M 753.839844 584.132812 C 754.109375 583.980469 754.234375 583.640625 754.113281 583.34375 C 752.382812 579 749.441406 579.160156 749.320312 579.167969 C 748.96875 579.191406 748.703125 579.5 748.726562 579.851562 C 748.753906 580.199219 749.054688 580.457031 749.402344 580.441406 C 749.507812 580.4375 751.566406 580.402344 752.929688 583.820312 C 753.058594 584.144531 753.429688 584.304688 753.757812 584.175781 L 753.839844 584.132812 " fill-opacity="1" fill-rule="nonzero"/><path fill="#ffffff" d="M 750.144531 585.511719 C 750.390625 585.367188 750.503906 585.058594 750.394531 584.785156 C 748.816406 580.8125 746.121094 580.960938 746.007812 580.96875 C 745.6875 580.996094 745.445312 581.273438 745.464844 581.59375 C 745.492188 581.914062 745.769531 582.152344 746.085938 582.128906 C 746.179688 582.128906 748.066406 582.09375 749.3125 585.21875 C 749.429688 585.519531 749.769531 585.664062 750.066406 585.542969 L 750.144531 585.511719 " fill-opacity="1" fill-rule="nonzero"/><path fill="#f79885" d="M 737.304688 382.917969 C 736.210938 385.863281 735.570312 387.464844 735.171875 388.824219 C 732.710938 389.40625 733.65625 384.789062 732.160156 383.78125 C 730.09375 382.386719 726.960938 382.230469 724.589844 381.683594 C 721.714844 381.019531 716.511719 379 714.46875 376.863281 C 713.507812 375.859375 711.332031 371.972656 714.601562 372.675781 C 716.320312 373.050781 724.707031 374.96875 726.621094 375.367188 C 727.945312 375.648438 729.484375 375.917969 730.847656 375.933594 C 732.25 375.949219 733.574219 376.242188 736.296875 375.792969 C 736.296875 375.792969 739.695312 379.203125 737.304688 382.917969 " fill-opacity="1" fill-rule="nonzero"/><path fill="#281b39" d="M 800.789062 440.023438 C 800.789062 440.023438 802.445312 422.894531 835.914062 431.8125 C 845.242188 441.539062 889.910156 532.960938 892.914062 543.972656 C 895.269531 552.613281 876.21875 556.734375 876.21875 556.734375 C 876.21875 556.734375 803.980469 458.996094 800.789062 440.023438 " fill-opacity="1" fill-rule="nonzero"/><path fill="#281b39" d="M 759.21875 561.464844 C 759.21875 561.464844 766.910156 564.960938 775.84375 564.269531 C 781.019531 563.871094 803.621094 463.957031 802.4375 441.3125 C 782.109375 413.28125 770.011719 425.527344 770.011719 425.527344 C 770.011719 425.527344 757.84375 481.640625 759.21875 561.464844 " fill-opacity="1" fill-rule="nonzero"/><path fill="#775256" d="M 827.394531 225.859375 C 827.394531 225.859375 832.066406 206.332031 858.761719 213.050781 C 858.761719 213.050781 874.527344 216.777344 875.144531 238.914062 C 875.144531 238.914062 874.164062 261.96875 853.484375 266.71875 C 853.484375 266.71875 819.957031 268.855469 827.394531 225.859375 " fill-opacity="1" fill-rule="nonzero"/><path fill="#f8a18f" d="M 842.34375 280.832031 L 861.996094 280.863281 L 862.042969 251.738281 L 842.386719 251.707031 L 842.34375 280.832031 " fill-opacity="1" fill-rule="nonzero"/><path fill="#f57c6e" d="M 856.65625 267.605469 C 859.296875 262.789062 860.097656 257.523438 860.429688 251.734375 L 842.386719 251.707031 L 842.351562 277.023438 C 847.523438 276.085938 853.984375 272.476562 856.65625 267.605469 " fill-opacity="1" fill-rule="nonzero"/><path fill="#f79885" d="M 781.921875 358.210938 C 789.492188 349.640625 791.253906 347.296875 794.292969 340.675781 C 801.140625 325.777344 808.277344 310.894531 814.511719 295.722656 C 824.976562 278.667969 837.058594 291.3125 838.359375 292.84375 C 831.078125 312.070312 822.601562 327.988281 811.765625 350.269531 C 806.773438 360.539062 798.914062 365.269531 787.8125 372.667969 C 787.8125 372.667969 778.871094 365.742188 781.921875 358.210938 " fill-opacity="1" fill-rule="nonzero"/><path fill="#f8a18f" d="M 860.421875 279.585938 L 895.136719 292.359375 L 876.019531 377.898438 L 830.269531 377.898438 L 827.578125 287.351562 L 844.175781 279.585938 L 860.421875 279.585938 " fill-opacity="1" fill-rule="nonzero"/><path fill="#281b39" d="M 828.992188 375.371094 C 828.992188 375.371094 852.734375 372.277344 883.707031 375.570312 C 895.847656 394.128906 896.671875 408.335938 894.386719 427.207031 C 894.386719 427.207031 896.082031 444.226562 872.503906 445.660156 L 821.582031 448.773438 L 770.363281 431.203125 C 770.363281 431.203125 767.34375 417.722656 788.972656 405.738281 L 819.015625 393.785156 L 828.992188 375.371094 " fill-opacity="1" fill-rule="nonzero"/><path fill="#162643" d="M 884.832031 389.734375 C 845.039062 384.425781 824.910156 389.664062 824.710938 389.71875 L 824.359375 388.421875 C 824.5625 388.367188 844.902344 383.054688 885.011719 388.402344 L 884.832031 389.734375 " fill-opacity="1" fill-rule="nonzero"/><path fill="#162643" d="M 827.277344 384.019531 L 827.023438 382.699219 C 847.347656 378.792969 871.894531 381.132812 881.503906 382.320312 L 881.339844 383.65625 C 871.792969 382.476562 847.414062 380.148438 827.277344 384.019531 " fill-opacity="1" fill-rule="nonzero"/><path fill="#162643" d="M 893.8125 418.539062 C 881.269531 413.65625 875.171875 403.609375 875.171875 387.820312 L 876.515625 387.820312 C 876.515625 402.988281 882.335938 412.625 894.300781 417.285156 L 893.8125 418.539062 " fill-opacity="1" fill-rule="nonzero"/><path fill="#41337d" d="M 820.96875 315.886719 L 828.992188 375.371094 C 838.242188 380.070312 843.261719 378.984375 857.558594 378.964844 C 862.132812 378.960938 884.621094 380.679688 883.707031 375.570312 C 882.960938 371.421875 885.027344 364.160156 884.921875 361.066406 C 884.8125 357.964844 885.464844 356.378906 885.71875 353.277344 C 885.964844 350.183594 885.910156 347.113281 887.429688 344.332031 C 890.246094 339.15625 890.207031 331.488281 891.492188 325.671875 C 892.800781 319.769531 893.6875 316.847656 893.6875 310.777344 C 893.691406 307.554688 896.457031 303.945312 897.246094 300.804688 C 898.085938 297.472656 897.617188 293.453125 894.324219 291.949219 C 891.398438 290.613281 888.070312 289.773438 885.035156 288.65625 C 880.109375 286.835938 871.957031 283.230469 867.027344 281.417969 C 849.40625 296.578125 838.566406 282.210938 838.566406 282.210938 L 827.371094 287.453125 C 827.371094 287.453125 818.105469 294.039062 820.96875 315.886719 " fill-opacity="1" fill-rule="nonzero"/><path fill="#41337d" d="M 888.46875 350.398438 C 889.351562 357.164062 892.546875 368.800781 894.054688 375.371094 C 895.601562 382.09375 896.050781 384.019531 896.847656 391.082031 C 897.679688 398.472656 899.449219 405.535156 898.996094 413.277344 C 894.558594 415.523438 884.777344 408.347656 880.695312 406.132812 C 874.660156 402.859375 869.414062 399.585938 862.976562 397.074219 C 855.0625 393.988281 850.171875 399.152344 841.664062 398.328125 C 836.648438 397.839844 826.132812 396.601562 822.707031 392.699219 C 821.40625 393.660156 820.265625 393.304688 819.015625 393.785156 C 820.96875 385.453125 824.292969 378.4375 823.820312 369.347656 C 823.351562 360.214844 825.472656 349.535156 824.5625 340.425781 C 822.4375 319.03125 847.675781 315.019531 864.542969 319.164062 C 871.367188 320.84375 882.222656 321.488281 886.957031 327.609375 C 891.703125 333.75 887.546875 343.300781 888.46875 350.398438 " fill-opacity="1" fill-rule="nonzero"/><path fill="#1d1e32" d="M 850.554688 295.1875 C 847.914062 295.1875 845.125 294.992188 842.859375 293.609375 C 840.523438 292.796875 835.042969 289.332031 835.042969 286.3125 C 835.042969 285.9375 835.347656 285.636719 835.714844 285.636719 C 836.089844 285.636719 836.390625 285.9375 836.390625 286.3125 C 836.390625 288.351562 841.003906 291.574219 843.363281 292.359375 L 843.503906 292.425781 C 845.898438 293.917969 849.203125 293.871094 852.105469 293.828125 C 852.601562 293.816406 853.089844 293.8125 853.558594 293.8125 C 858.167969 293.480469 864.554688 291.460938 868.324219 287.695312 C 868.585938 287.429688 869.011719 287.429688 869.277344 287.695312 C 869.539062 287.953125 869.539062 288.382812 869.277344 288.640625 C 865.746094 292.171875 859.597656 294.726562 853.605469 295.15625 C 853.097656 295.15625 852.617188 295.164062 852.128906 295.171875 C 851.617188 295.179688 851.085938 295.1875 850.554688 295.1875 " fill-opacity="1" fill-rule="nonzero"/><path fill="#1d1e32" d="M 823.984375 356.558594 L 823.898438 356.554688 C 823.527344 356.507812 823.269531 356.167969 823.316406 355.800781 C 823.636719 353.332031 823.621094 346.875 823.609375 341.6875 L 823.605469 338.855469 C 823.605469 336.902344 822.855469 332.65625 822.132812 328.554688 C 821.515625 325.039062 820.929688 321.714844 820.839844 319.972656 C 820.824219 319.601562 821.109375 319.285156 821.480469 319.265625 C 821.878906 319.238281 822.164062 319.535156 822.183594 319.902344 C 822.269531 321.5625 822.847656 324.847656 823.460938 328.324219 C 824.191406 332.480469 824.949219 336.78125 824.949219 338.855469 L 824.953125 341.683594 C 824.96875 347.183594 824.980469 353.421875 824.648438 355.972656 C 824.605469 356.3125 824.316406 356.558594 823.984375 356.558594 " fill-opacity="1" fill-rule="nonzero"/><path fill="#1d1e32" d="M 877.492188 359.660156 C 877.160156 359.660156 876.867188 359.40625 876.828125 359.070312 C 875.980469 352.109375 875.734375 345.742188 875.515625 340.117188 C 875.417969 337.503906 875.324219 335.027344 875.175781 332.847656 C 874.726562 326.25 874.453125 319.335938 874.367188 312.296875 C 874.300781 307.027344 874.753906 299.335938 879.421875 293.414062 C 879.65625 293.125 880.078125 293.074219 880.367188 293.304688 C 880.65625 293.53125 880.710938 293.957031 880.480469 294.246094 C 877.082031 298.558594 875.609375 304.121094 875.714844 312.28125 C 875.800781 319.292969 876.074219 326.183594 876.515625 332.761719 C 876.664062 334.953125 876.761719 337.441406 876.863281 340.070312 C 877.078125 345.664062 877.324219 352.003906 878.164062 358.902344 C 878.210938 359.273438 877.945312 359.609375 877.578125 359.652344 L 877.492188 359.660156 " fill-opacity="1" fill-rule="nonzero"/><path fill="#f8a18f" d="M 883.863281 367.78125 C 886.191406 373.183594 893.222656 377.460938 898.542969 377.417969 C 901.957031 377.390625 904.59375 375.875 906.714844 373.683594 C 907.1875 371.5 907.394531 368.964844 907.464844 365.925781 C 908.144531 336.277344 901.511719 301.71875 896.480469 294.535156 C 896.042969 292.753906 884.4375 285.609375 880.175781 300.925781 C 880.175781 300.925781 878.976562 326.621094 884.953125 359.25 C 884.953125 359.25 886.902344 363.363281 883.863281 367.78125 " fill-opacity="1" fill-rule="nonzero"/><path fill="#f8a18f" d="M 795.675781 375.726562 C 794.03125 374.195312 797.074219 372.777344 797.074219 372.777344 L 812.664062 367.878906 L 829.1875 369.078125 C 831.003906 374.753906 828.128906 375.78125 828.128906 375.78125 C 828.128906 375.78125 803.460938 382.996094 795.675781 375.726562 " fill-opacity="1" fill-rule="nonzero"/><path fill="#f8a18f" d="M 870.777344 244.949219 C 870.8125 248.558594 868.785156 252.640625 865.527344 254.121094 C 861.109375 256.136719 859.433594 252.082031 859.449219 248.128906 C 859.472656 244.941406 860.898438 239.460938 864.519531 238.347656 C 867.933594 237.296875 870.75 241.988281 870.777344 244.949219 " fill-opacity="1" fill-rule="nonzero"/><path fill="#f8a18f" d="M 861.6875 254.710938 C 859.589844 259.90625 856.742188 264.160156 851.832031 267.144531 C 847.015625 270.0625 842.058594 271.546875 837.449219 267.703125 C 833.777344 264.648438 831.414062 260.203125 830.097656 255.726562 C 827.066406 245.433594 829.488281 231.21875 836.066406 222.960938 C 843.292969 213.898438 857.15625 215.992188 862.46875 226.167969 C 866.796875 234.460938 865.074219 246.335938 861.6875 254.710938 " fill-opacity="1" fill-rule="nonzero"/><path fill="#f57c6e" d="M 865.445312 250.992188 L 865.625 250.964844 C 865.984375 250.867188 866.195312 250.496094 866.097656 250.136719 C 865.199219 246.867188 865.824219 243.613281 867.515625 242.730469 C 867.847656 242.5625 867.976562 242.152344 867.804688 241.820312 C 867.632812 241.488281 867.222656 241.363281 866.890625 241.535156 C 864.582031 242.738281 863.699219 246.503906 864.796875 250.496094 C 864.875 250.792969 865.148438 250.992188 865.445312 250.992188 " fill-opacity="1" fill-rule="nonzero"/><path fill="#f57c6e" d="M 868.765625 245.964844 C 869.027344 245.964844 869.277344 245.816406 869.386719 245.5625 C 869.53125 245.21875 869.378906 244.820312 869.039062 244.671875 C 868.445312 244.417969 866.410156 243.648438 865.003906 244.515625 C 864.6875 244.710938 864.585938 245.125 864.78125 245.441406 C 864.980469 245.761719 865.398438 245.855469 865.710938 245.664062 C 866.34375 245.273438 867.597656 245.519531 868.496094 245.910156 L 868.765625 245.964844 " fill-opacity="1" fill-rule="nonzero"/><path fill="#775256" d="M 859.703125 245.640625 C 860.433594 246.425781 862.925781 244.386719 863.449219 242.820312 C 863.503906 242.664062 863.449219 242.820312 863.449219 242.820312 C 863.648438 240.976562 864.886719 239.398438 867.078125 239.320312 C 868.644531 239.269531 870.144531 241.644531 870.585938 243.226562 C 870.699219 241.566406 870.664062 239.171875 870.695312 237.398438 C 870.71875 235.714844 870.632812 233.90625 870.421875 232.175781 C 869.953125 228.152344 869.636719 225.941406 867.734375 222.160156 C 865.679688 218.09375 862.460938 214.929688 857.890625 213.769531 C 852.371094 212.367188 843.359375 211.214844 838.65625 214.585938 C 836.246094 216.316406 838.246094 216.761719 838.585938 224.339844 C 838.585938 224.339844 860.238281 219.1875 859.703125 245.640625 " fill-opacity="1" fill-rule="nonzero"/><path fill="#1d1e32" d="M 836.914062 242.390625 C 836.84375 243.535156 836.234375 244.429688 835.542969 244.382812 C 834.859375 244.34375 834.359375 243.378906 834.429688 242.238281 C 834.503906 241.097656 835.117188 240.203125 835.804688 240.246094 C 836.492188 240.289062 836.988281 241.25 836.914062 242.390625 " fill-opacity="1" fill-rule="nonzero"/><path fill="#1d1e32" d="M 851.785156 243.324219 C 851.714844 244.46875 851.101562 245.359375 850.414062 245.316406 C 849.730469 245.273438 849.234375 244.3125 849.304688 243.167969 C 849.375 242.027344 849.984375 241.132812 850.671875 241.179688 C 851.363281 241.21875 851.859375 242.179688 851.785156 243.324219 " fill-opacity="1" fill-rule="nonzero"/><path fill="#f57c6e" d="M 853.886719 248.351562 C 853.839844 249.160156 852.304688 249.730469 850.464844 249.609375 C 848.625 249.5 847.171875 248.746094 847.222656 247.933594 C 847.277344 247.117188 848.808594 246.554688 850.648438 246.671875 C 852.488281 246.785156 853.9375 247.535156 853.886719 248.351562 " fill-opacity="1" fill-rule="nonzero"/><path fill="#f57c6e" d="M 837.464844 247.320312 C 837.417969 248.132812 835.882812 248.695312 834.042969 248.585938 C 832.207031 248.464844 830.753906 247.710938 830.804688 246.898438 C 830.851562 246.085938 832.390625 245.523438 834.230469 245.640625 C 836.066406 245.753906 837.519531 246.507812 837.464844 247.320312 " fill-opacity="1" fill-rule="nonzero"/><path fill="#775256" d="M 853.769531 239.738281 C 853.453125 239.738281 853.140625 239.585938 852.945312 239.304688 C 852.257812 238.324219 849.75 237.90625 848.410156 238.828125 C 847.953125 239.144531 847.324219 239.027344 847.003906 238.570312 C 846.6875 238.109375 846.804688 237.484375 847.265625 237.164062 C 849.441406 235.664062 853.210938 236.167969 854.601562 238.148438 C 854.914062 238.605469 854.808594 239.234375 854.347656 239.554688 C 854.175781 239.675781 853.96875 239.738281 853.769531 239.738281 " fill-opacity="1" fill-rule="nonzero"/><path fill="#775256" d="M 838.746094 239.738281 C 838.429688 239.738281 838.117188 239.585938 837.917969 239.304688 C 837.230469 238.324219 834.722656 237.902344 833.378906 238.828125 C 832.921875 239.148438 832.292969 239.027344 831.980469 238.570312 C 831.660156 238.113281 831.777344 237.484375 832.234375 237.167969 C 834.414062 235.667969 838.183594 236.167969 839.570312 238.148438 C 839.890625 238.605469 839.78125 239.234375 839.324219 239.554688 C 839.148438 239.675781 838.945312 239.738281 838.746094 239.738281 " fill-opacity="1" fill-rule="nonzero"/><path fill="#775256" d="M 829.265625 236.480469 C 826.671875 229.554688 826.164062 218.011719 838.933594 214.070312 C 842.070312 213.101562 849.628906 212.742188 851.996094 215.601562 C 857.242188 221.9375 844.703125 223.769531 841.363281 223.949219 C 836.035156 224.238281 832.363281 225.519531 829.265625 236.480469 " fill-opacity="1" fill-rule="nonzero"/><path fill="#604244" d="M 857.175781 218.140625 C 852.210938 215.089844 841.992188 214.917969 838.128906 219.96875 C 838.320312 221.085938 838.5 222.5 838.585938 224.339844 C 838.585938 224.339844 857.8125 219.777344 859.578125 241.398438 C 862.710938 233.304688 865.761719 223.417969 857.175781 218.140625 " fill-opacity="1" fill-rule="nonzero"/><path fill="#604244" d="M 836.609375 224.871094 C 838.042969 224.25 839.613281 224.039062 841.363281 223.945312 C 844.550781 223.773438 856.125 222.089844 852.589844 216.421875 C 845.695312 214.96875 838.128906 216.460938 836.609375 224.871094 " fill-opacity="1" fill-rule="nonzero"/><path fill="#f79885" d="M 787.8125 372.667969 C 753.984375 382.792969 758.90625 379.203125 736.679688 382.269531 L 735.332031 376.128906 C 769.277344 364.886719 783.972656 355.886719 783.972656 355.886719 C 783.972656 355.886719 792.574219 360.726562 787.8125 372.667969 " fill-opacity="1" fill-rule="nonzero"/><path fill="#180f1e" d="M 842.878906 511.273438 C 827.699219 489.082031 808.722656 460.636719 804.546875 451.179688 C 795.566406 430.851562 795.339844 423.003906 811.363281 413.523438 C 818.667969 409.203125 828.8125 405.664062 843.289062 402.394531 L 843.582031 403.707031 C 834.566406 405.742188 821.484375 409.101562 812.050781 414.679688 C 796.671875 423.773438 796.890625 430.515625 805.777344 450.636719 C 809.914062 460 828.839844 488.367188 843.992188 510.515625 L 842.878906 511.273438 " fill-opacity="1" fill-rule="nonzero"/><path fill="#180f1e" d="M 867.703125 492.601562 C 867.457031 492.601562 867.21875 492.464844 867.097656 492.230469 C 864.730469 487.507812 862.480469 482.683594 860.308594 478.023438 C 857.699219 472.429688 855.003906 466.652344 852.085938 461.011719 C 851.300781 459.488281 850.484375 457.796875 849.628906 456.011719 C 845.839844 448.136719 841.125 438.335938 834.390625 434.613281 C 834.066406 434.433594 833.949219 434.027344 834.128906 433.699219 C 834.308594 433.375 834.71875 433.257812 835.042969 433.4375 C 842.152344 437.367188 846.96875 447.382812 850.839844 455.429688 C 851.691406 457.199219 852.5 458.882812 853.277344 460.394531 C 856.214844 466.0625 858.914062 471.851562 861.527344 477.453125 C 863.699219 482.109375 865.941406 486.925781 868.304688 491.625 C 868.46875 491.957031 868.335938 492.359375 868.003906 492.527344 L 867.703125 492.601562 " fill-opacity="1" fill-rule="nonzero"/><path fill="#180f1e" d="M 850.925781 448.113281 C 849.535156 448.113281 848.199219 448.039062 847.007812 447.832031 C 846.640625 447.765625 846.394531 447.417969 846.457031 447.050781 C 846.523438 446.683594 846.878906 446.441406 847.238281 446.503906 C 850.113281 447.007812 853.996094 446.691406 857.421875 446.414062 C 858.542969 446.328125 859.613281 446.242188 860.582031 446.1875 C 864.101562 446 872.332031 445.5625 878.058594 444.273438 C 878.417969 444.195312 878.78125 444.421875 878.859375 444.78125 C 878.941406 445.144531 878.710938 445.503906 878.351562 445.585938 C 872.519531 446.898438 864.207031 447.339844 860.65625 447.53125 C 859.699219 447.582031 858.640625 447.667969 857.535156 447.757812 C 855.398438 447.929688 853.089844 448.113281 850.925781 448.113281 " fill-opacity="1" fill-rule="nonzero"/><path fill="#180f1e" d="M 846.128906 447.976562 C 845.804688 447.976562 845.519531 447.742188 845.464844 447.410156 C 845.089844 445.023438 844.941406 435.929688 846.746094 432.492188 C 846.917969 432.160156 847.324219 432.035156 847.652344 432.207031 C 847.984375 432.378906 848.109375 432.785156 847.933594 433.113281 C 846.441406 435.96875 846.363281 444.472656 846.796875 447.199219 C 846.851562 447.566406 846.601562 447.914062 846.234375 447.96875 L 846.128906 447.976562 " fill-opacity="1" fill-rule="nonzero"/><path fill="#180f1e" d="M 781.644531 550.484375 C 781.488281 550.484375 781.332031 550.429688 781.203125 550.320312 C 780.925781 550.074219 780.894531 549.648438 781.136719 549.371094 C 781.371094 549.101562 781.503906 548.789062 781.546875 548.425781 L 781.578125 548.285156 C 786.820312 532.773438 790.164062 517.449219 792.746094 504.496094 C 793.792969 499.253906 794.636719 493.824219 795.457031 488.574219 C 795.707031 486.980469 795.953125 485.390625 796.207031 483.800781 C 796.53125 481.773438 796.910156 479.679688 797.316406 477.441406 C 798.238281 472.375 799.28125 466.632812 800.121094 459.179688 C 800.160156 458.808594 800.5 458.539062 800.863281 458.585938 C 801.230469 458.625 801.5 458.957031 801.457031 459.328125 C 800.613281 466.832031 799.5625 472.59375 798.640625 477.679688 C 798.238281 479.910156 797.859375 481.996094 797.535156 484.015625 C 797.285156 485.601562 797.035156 487.191406 796.789062 488.78125 C 795.964844 494.042969 795.117188 499.484375 794.066406 504.761719 C 791.480469 517.734375 788.128906 533.089844 782.875 548.648438 C 782.792969 549.257812 782.550781 549.792969 782.152344 550.25 C 782.019531 550.40625 781.832031 550.484375 781.644531 550.484375 " fill-opacity="1" fill-rule="nonzero"/><path fill="#180f1e" d="M 761.234375 497.917969 C 760.863281 497.917969 760.5625 497.617188 760.5625 497.242188 C 760.601562 488.097656 762.109375 474.207031 763.324219 463.046875 C 763.675781 459.777344 764.003906 456.742188 764.265625 454.125 C 765.519531 441.566406 767.820312 431.152344 771.300781 422.28125 C 773.34375 417.074219 776.085938 413.242188 779.921875 410.226562 C 781.460938 409.015625 785.707031 407.023438 789.816406 405.089844 C 791.640625 404.230469 793.421875 403.394531 794.886719 402.664062 C 795.21875 402.5 795.621094 402.628906 795.789062 402.960938 C 795.957031 403.296875 795.820312 403.699219 795.488281 403.863281 C 794.015625 404.601562 792.222656 405.445312 790.386719 406.308594 C 786.539062 408.117188 782.171875 410.167969 780.75 411.285156 C 777.109375 414.148438 774.503906 417.796875 772.554688 422.773438 C 769.117188 431.527344 766.847656 441.824219 765.605469 454.257812 C 765.34375 456.878906 765.015625 459.917969 764.660156 463.191406 C 763.453125 474.320312 761.949219 488.171875 761.910156 497.246094 C 761.90625 497.621094 761.605469 497.917969 761.234375 497.917969 " fill-opacity="1" fill-rule="nonzero"/><path fill="#f8a18f" d="M 885.429688 359.179688 C 867.996094 367.914062 854.230469 369.195312 828.371094 369.238281 L 826.851562 375.195312 C 852.976562 379.304688 889.144531 380.425781 901.707031 376.730469 C 902.230469 368.757812 901.210938 361.636719 885.429688 359.179688 " fill-opacity="1" fill-rule="nonzero"/><path fill="#f57c6e" d="M 840.871094 251.550781 L 840.714844 251.53125 C 839.871094 251.332031 839.015625 250.675781 838.582031 249.898438 C 838.230469 249.269531 838.164062 248.601562 838.375 247.957031 C 838.613281 247.246094 839.214844 246.8125 839.746094 246.421875 C 840.160156 246.117188 840.558594 245.828125 840.691406 245.480469 C 840.828125 245.128906 841.214844 244.957031 841.5625 245.089844 C 841.910156 245.21875 842.082031 245.613281 841.949219 245.957031 C 841.675781 246.679688 841.070312 247.121094 840.539062 247.511719 C 840.136719 247.804688 839.761719 248.082031 839.660156 248.386719 C 839.5625 248.667969 839.597656 248.945312 839.761719 249.242188 C 840.046875 249.75 840.621094 250.121094 841.023438 250.21875 C 841.390625 250.304688 841.613281 250.667969 841.527344 251.03125 C 841.453125 251.339844 841.175781 251.550781 840.871094 251.550781 " fill-opacity="1" fill-rule="nonzero"/><path fill="#ffffff" d="M 837.84375 254.339844 C 836.699219 254.269531 836.175781 254.269531 836.804688 255.359375 C 837.640625 256.808594 839.269531 259.066406 841.089844 258.382812 C 842.386719 257.894531 844.289062 256.585938 845.019531 255.359375 C 845.621094 254.34375 844.46875 254.355469 843.5625 254.339844 C 841.632812 254.3125 839.800781 254.460938 837.84375 254.339844 " fill-opacity="1" fill-rule="nonzero"/><path fill="#f8a18f" d="M 836.917969 221.980469 C 836.917969 221.980469 835.925781 225.488281 834.425781 226.71875 L 836.917969 225.730469 C 836.917969 225.730469 836.117188 226.6875 836.917969 221.980469 " fill-opacity="1" fill-rule="nonzero"/><path fill="#835b60" d="M 842.4375 213.484375 C 845.140625 210.480469 848.949219 208.933594 852.980469 209.171875 C 861.402344 209.664062 866.980469 213.941406 870.78125 220.839844 C 872.324219 223.648438 873.832031 229.523438 874.269531 232.71875 C 875.234375 239.648438 873.226562 246.476562 871.746094 253.179688 C 870.171875 260.328125 868.617188 267.480469 867.0625 274.636719 C 860.191406 306.28125 867.0625 335.015625 867.0625 335.015625 C 861.921875 331.027344 858.058594 325.734375 855.492188 319.796875 C 847.300781 300.867188 851.484375 279.113281 855.320312 259.675781 C 856.398438 254.21875 858.175781 248.929688 859.210938 243.464844 C 860.6875 235.644531 860.566406 225.65625 854.832031 219.660156 C 848.625 213.175781 839.703125 217.046875 836.609375 224.875 C 836.609375 224.875 837.058594 219.46875 842.4375 213.484375 " fill-opacity="1" fill-rule="nonzero"/><g clip-path="url(#43ac7bce8b)"><path fill="#9d4436" d="M 1026.238281 387.128906 C 1026.238281 383 1022.890625 379.652344 1018.757812 379.652344 L 895.902344 379.652344 C 891.769531 379.652344 888.421875 383 888.421875 387.128906 C 888.421875 391.257812 891.769531 394.601562 895.902344 394.601562 L 1018.757812 394.601562 C 1022.890625 394.601562 1026.238281 391.257812 1026.238281 387.128906 " fill-opacity="1" fill-rule="nonzero"/></g><g clip-path="url(#bc53590cd2)"><path fill="#bd5242" d="M 888.421875 387.128906 C 888.421875 383 891.769531 379.652344 895.902344 379.652344 L 583.789062 379.652344 C 579.65625 379.652344 576.308594 383 576.308594 387.128906 C 576.308594 391.261719 579.65625 394.605469 583.789062 394.605469 L 895.902344 394.605469 C 891.769531 394.605469 888.421875 391.261719 888.421875 387.128906 " fill-opacity="1" fill-rule="nonzero"/></g><path fill="#e6a279" d="M 704.109375 403.765625 L 624.707031 403.765625 L 624.707031 394.605469 L 704.109375 394.605469 L 704.109375 403.765625 " fill-opacity="1" fill-rule="nonzero"/><g clip-path="url(#a9e3cde427)"><path fill="#e6a279" d="M 627.621094 603.832031 L 620.804688 603.832031 L 641.570312 403.765625 L 652.757812 403.765625 L 627.621094 603.832031 " fill-opacity="1" fill-rule="nonzero"/></g><g clip-path="url(#86fa67a706)"><path fill="#e6a279" d="M 706.550781 603.832031 L 713.367188 603.832031 L 687.25 403.765625 L 676.0625 403.765625 L 706.550781 603.832031 " fill-opacity="1" fill-rule="nonzero"/></g><path fill="#e6a279" d="M 998.34375 403.765625 L 918.941406 403.765625 L 918.941406 394.605469 L 998.34375 394.605469 L 998.34375 403.765625 " fill-opacity="1" fill-rule="nonzero"/><g clip-path="url(#c7d46a2f9c)"><path fill="#e6a279" d="M 921.855469 603.832031 L 915.039062 603.832031 L 935.796875 403.765625 L 946.988281 403.765625 L 921.855469 603.832031 " fill-opacity="1" fill-rule="nonzero"/></g><g clip-path="url(#4363e82afc)"><path fill="#e6a279" d="M 1000.785156 603.832031 L 1007.597656 603.832031 L 981.484375 403.765625 L 970.292969 403.765625 L 1000.785156 603.832031 " fill-opacity="1" fill-rule="nonzero"/></g><path fill="#b3dfec" d="M 794.832031 371.992188 C 794.832031 373.457031 793.644531 374.648438 792.175781 374.648438 L 695.574219 374.648438 C 694.105469 374.648438 692.917969 373.457031 692.917969 371.992188 L 677.664062 312.222656 C 677.664062 310.757812 678.851562 309.566406 680.320312 309.566406 L 776.917969 309.566406 C 778.386719 309.566406 779.578125 310.757812 779.578125 312.222656 L 794.832031 371.992188 " fill-opacity="1" fill-rule="nonzero"/><path fill="#87abd6" d="M 792.058594 371.992188 C 792.058594 373.457031 790.878906 374.648438 789.425781 374.648438 L 693.628906 374.648438 C 692.175781 374.648438 690.996094 373.457031 690.996094 371.992188 L 675.738281 312.222656 C 675.738281 310.757812 676.917969 309.566406 678.375 309.566406 L 774.167969 309.566406 C 775.621094 309.566406 776.800781 310.757812 776.800781 312.222656 L 792.058594 371.992188 " fill-opacity="1" fill-rule="nonzero"/><path fill="#1a324d" d="M 730.550781 379.652344 L 836.230469 379.652344 L 836.230469 375.488281 L 730.550781 375.488281 L 730.550781 379.652344 " fill-opacity="1" fill-rule="nonzero"/><path fill="#b3dfec" d="M 724.066406 343.199219 C 724.066406 346.777344 726.96875 349.675781 730.550781 349.675781 C 734.132812 349.675781 737.03125 346.777344 737.03125 343.199219 C 737.03125 339.617188 734.132812 336.71875 730.550781 336.71875 C 726.96875 336.71875 724.066406 339.617188 724.066406 343.199219 " fill-opacity="1" fill-rule="nonzero"/><path fill="#5d7db8" d="M 768.839844 374.648438 L 853.78125 374.648438 C 853.78125 374.648438 860.1875 374.851562 860.511719 379.652344 L 768.839844 379.652344 L 768.839844 374.648438 " fill-opacity="1" fill-rule="nonzero"/><path fill="#6f96cd" d="M 689.105469 379.652344 L 798.199219 379.652344 C 797.875 374.851562 791.46875 374.648438 791.46875 374.648438 L 693.1875 374.648438 C 693.1875 374.648438 689.105469 374.691406 689.105469 379.652344 " fill-opacity="1" fill-rule="nonzero"/><g clip-path="url(#ed3287790a)"><path fill="#727dc4" d="M 414.050781 271.808594 L 443.75 271.808594 L 443.75 279.113281 L 414.050781 279.113281 Z M 414.050781 271.808594 " fill-opacity="1" fill-rule="nonzero"/></g><path fill="#727dc4" d="M 450.953125 271.808594 L 509.523438 271.808594 L 509.523438 279.113281 L 450.953125 279.113281 Z M 450.953125 271.808594 " fill-opacity="1" fill-rule="nonzero"/><g clip-path="url(#dc18bbbb5e)"><path fill="#727dc4" d="M 414.050781 285.421875 L 443.75 285.421875 L 443.75 292.726562 L 414.050781 292.726562 Z M 414.050781 285.421875 " fill-opacity="1" fill-rule="nonzero"/></g><path fill="#727dc4" d="M 450.953125 285.421875 L 489.246094 285.421875 L 489.246094 292.726562 L 450.953125 292.726562 Z M 450.953125 285.421875 " fill-opacity="1" fill-rule="nonzero"/><g clip-path="url(#73a7d02c3f)"><path fill="#727dc4" d="M 414.050781 309.871094 L 443.75 309.871094 L 443.75 317.171875 L 414.050781 317.171875 Z M 414.050781 309.871094 " fill-opacity="1" fill-rule="nonzero"/></g><path fill="#727dc4" d="M 557.070312 345.761719 L 586.769531 345.761719 L 586.769531 353.066406 L 557.070312 353.066406 Z M 557.070312 345.761719 " fill-opacity="1" fill-rule="nonzero"/><path fill="#727dc4" d="M 450.953125 309.871094 L 466.433594 309.871094 L 466.433594 317.171875 L 450.953125 317.171875 Z M 450.953125 309.871094 " fill-opacity="1" fill-rule="nonzero"/><path fill="#727dc4" d="M 433.148438 323.480469 L 452.433594 323.480469 L 452.433594 330.785156 L 433.148438 330.785156 Z M 433.148438 323.480469 " fill-opacity="1" fill-rule="nonzero"/><path fill="#727dc4" d="M 459.636719 323.480469 L 518.207031 323.480469 L 518.207031 330.785156 L 459.636719 330.785156 Z M 459.636719 323.480469 " fill-opacity="1" fill-rule="nonzero"/><path fill="#727dc4" d="M 525.410156 323.480469 L 583.980469 323.480469 L 583.980469 330.785156 L 525.410156 330.785156 Z M 525.410156 323.480469 " fill-opacity="1" fill-rule="nonzero"/><path fill="#727dc4" d="M 473.636719 309.871094 L 532.207031 309.871094 L 532.207031 317.171875 L 473.636719 317.171875 Z M 473.636719 309.871094 " fill-opacity="1" fill-rule="nonzero"/><path fill="#727dc4" d="M 455.285156 345.761719 L 470.136719 345.761719 L 470.136719 353.066406 L 455.285156 353.066406 Z M 455.285156 345.761719 " fill-opacity="1" fill-rule="nonzero"/><path fill="#727dc4" d="M 476.445312 345.761719 L 550.761719 345.761719 L 550.761719 353.066406 L 476.445312 353.066406 Z M 476.445312 345.761719 " fill-opacity="1" fill-rule="nonzero"/><path fill="#727dc4" d="M 521.476562 359.375 L 595.792969 359.375 L 595.792969 366.675781 L 521.476562 366.675781 Z M 521.476562 359.375 " fill-opacity="1" fill-rule="nonzero"/><path fill="#727dc4" d="M 455.285156 359.375 L 484.988281 359.375 L 484.988281 366.675781 L 455.285156 366.675781 Z M 455.285156 359.375 " fill-opacity="1" fill-rule="nonzero"/><path fill="#727dc4" d="M 492.191406 359.375 L 515.503906 359.375 L 515.503906 366.675781 L 492.191406 366.675781 Z M 492.191406 359.375 " fill-opacity="1" fill-rule="nonzero"/><path fill="#727dc4" d="M 455.285156 372.984375 L 475.875 372.984375 L 475.875 380.289062 L 455.285156 380.289062 Z M 455.285156 372.984375 " fill-opacity="1" fill-rule="nonzero"/><path fill="#727dc4" d="M 480.871094 372.984375 L 521.476562 372.984375 L 521.476562 380.289062 L 480.871094 380.289062 Z M 480.871094 372.984375 " fill-opacity="1" fill-rule="nonzero"/><path fill="#727dc4" d="M 440.09375 393.097656 L 469.796875 393.097656 L 469.796875 400.402344 L 440.09375 400.402344 Z M 440.09375 393.097656 " fill-opacity="1" fill-rule="nonzero"/><path fill="#727dc4" d="M 526.46875 372.984375 L 556.171875 372.984375 L 556.171875 380.289062 L 526.46875 380.289062 Z M 526.46875 372.984375 " fill-opacity="1" fill-rule="nonzero"/><path fill="#727dc4" d="M 477 393.097656 L 535.570312 393.097656 L 535.570312 400.402344 L 477 400.402344 Z M 477 393.097656 " fill-opacity="1" fill-rule="nonzero"/><path fill="#727dc4" d="M 455.285156 406.710938 L 484.988281 406.710938 L 484.988281 414.015625 L 455.285156 414.015625 Z M 455.285156 406.710938 " fill-opacity="1" fill-rule="nonzero"/><path fill="#727dc4" d="M 492.191406 406.710938 L 550.761719 406.710938 L 550.761719 414.015625 L 492.191406 414.015625 Z M 492.191406 406.710938 " fill-opacity="1" fill-rule="nonzero"/><path fill="#727dc4" d="M 455.285156 420.324219 L 484.988281 420.324219 L 484.988281 427.625 L 455.285156 427.625 Z M 455.285156 420.324219 " fill-opacity="1" fill-rule="nonzero"/><path fill="#727dc4" d="M 492.191406 420.324219 L 605.554688 420.324219 L 605.554688 427.625 L 492.191406 427.625 Z M 492.191406 420.324219 " fill-opacity="1" fill-rule="nonzero"/><path fill="#727dc4" d="M 521.058594 433.933594 L 550.761719 433.933594 L 550.761719 441.238281 L 521.058594 441.238281 Z M 521.058594 433.933594 " fill-opacity="1" fill-rule="nonzero"/><path fill="#727dc4" d="M 455.285156 433.933594 L 513.855469 433.933594 L 513.855469 441.238281 L 455.285156 441.238281 Z M 455.285156 433.933594 " fill-opacity="1" fill-rule="nonzero"/><path fill="#727dc4" d="M 483.5 447.546875 L 527.8125 447.546875 L 527.8125 454.851562 L 483.5 454.851562 Z M 483.5 447.546875 " fill-opacity="1" fill-rule="nonzero"/><path fill="#727dc4" d="M 558.632812 433.933594 L 588.335938 433.933594 L 588.335938 441.238281 L 558.632812 441.238281 Z M 558.632812 433.933594 " fill-opacity="1" fill-rule="nonzero"/><path fill="#727dc4" d="M 538.558594 447.546875 L 625.945312 447.546875 L 625.945312 454.851562 L 538.558594 454.851562 Z M 538.558594 447.546875 " fill-opacity="1" fill-rule="nonzero"/><path fill="#727dc4" d="M 527.980469 461.15625 L 615.363281 461.15625 L 615.363281 468.460938 L 527.980469 468.460938 Z M 527.980469 461.15625 " fill-opacity="1" fill-rule="nonzero"/><path fill="#727dc4" d="M 455.285156 461.15625 L 476.3125 461.15625 L 476.3125 468.460938 L 455.285156 468.460938 Z M 455.285156 461.15625 " fill-opacity="1" fill-rule="nonzero"/><path fill="#727dc4" d="M 481.414062 461.15625 L 522.878906 461.15625 L 522.878906 468.460938 L 481.414062 468.460938 Z M 481.414062 461.15625 " fill-opacity="1" fill-rule="nonzero"/><path fill="#727dc4" d="M 494.351562 474.769531 L 524.050781 474.769531 L 524.050781 482.074219 L 494.351562 482.074219 Z M 494.351562 474.769531 " fill-opacity="1" fill-rule="nonzero"/><path fill="#727dc4" d="M 531.257812 474.769531 L 589.828125 474.769531 L 589.828125 482.074219 L 531.257812 482.074219 Z M 531.257812 474.769531 " fill-opacity="1" fill-rule="nonzero"/><g clip-path="url(#bc2094c35d)"><path fill="#727dc4" d="M 494.351562 488.382812 L 535.632812 488.382812 L 535.632812 495.683594 L 494.351562 495.683594 Z M 494.351562 488.382812 " fill-opacity="1" fill-rule="nonzero"/></g><g clip-path="url(#b096aa2568)"><path fill="#727dc4" d="M 545.644531 488.382812 L 627.054688 488.382812 L 627.054688 495.683594 L 545.644531 495.683594 Z M 545.644531 488.382812 " fill-opacity="1" fill-rule="nonzero"/></g><path fill="#727dc4" d="M 533.0625 289.074219 L 524.089844 289.074219 L 540.582031 279.007812 L 540.582031 284.742188 Z M 540.582031 299.164062 L 524.089844 289.074219 L 533.0625 289.074219 L 540.582031 293.378906 Z M 540.582031 299.164062 " fill-opacity="1" fill-rule="nonzero"/><g clip-path="url(#6e34fc9083)"><path fill="#727dc4" d="M 555.121094 265.445312 L 571.757812 312.257812 L 566.953125 312.257812 L 550.316406 265.445312 Z M 555.121094 265.445312 " fill-opacity="1" fill-rule="nonzero"/></g><path fill="#727dc4" d="M 583.589844 279.007812 L 600.078125 289.074219 L 591.105469 289.074219 L 583.589844 284.742188 Z M 591.105469 289.074219 L 600.078125 289.074219 L 583.589844 299.164062 L 583.589844 293.378906 Z M 591.105469 289.074219 " fill-opacity="1" fill-rule="nonzero"/></svg>